<?xml version="1.0" standalone="no"?>
<!DOCTYPE svg PUBLIC "-//W3C//DTD SVG 20010904//EN"
 "http://www.w3.org/TR/2001/REC-SVG-20010904/DTD/svg10.dtd">
<svg version="1.0" xmlns="http://www.w3.org/2000/svg"
 width="768.000000pt" height="436.000000pt" viewBox="0 0 768.000000 436.000000"
 preserveAspectRatio="xMidYMid meet">

<g transform="translate(0.000000,436.000000) scale(0.100000,-0.100000)"
fill="#000000" stroke="none">
<path d="M1656 4313 c-67 -132 -296 -674 -296 -701 0 -4 12 -8 27 -9 17 -1 38
-13 55 -32 25 -27 41 -31 21 -5 -5 5 0 1 9 -9 16 -17 17 -17 28 0 10 16 11 15
6 -5 -4 -19 -2 -21 10 -11 8 6 14 8 14 5 0 -33 -353 -816 -408 -906 l-22 -35
4 35 c3 30 2 32 -9 17 -8 -12 -15 -14 -20 -7 -3 5 -11 7 -17 4 -6 -4 -8 -2 -5
3 6 10 -99 60 -107 52 -10 -9 -216 -439 -216 -449 0 -6 -7 -25 -16 -41 -13
-26 -20 -30 -41 -24 -39 9 -53 -9 -40 -51 9 -29 8 -37 -4 -45 -20 -13 -29 -11
-29 6 0 17 -35 55 -50 55 -10 0 -8 -39 5 -78 5 -14 13 -21 21 -18 28 11 13 -2
-45 -37 -114 -71 -223 -191 -284 -312 -37 -75 -67 -181 -67 -239 0 -28 -3 -74
-6 -103 -6 -44 -9 -50 -20 -38 -8 7 -14 22 -14 32 0 13 -3 14 -8 5 -6 -8 -21
-10 -44 -7 -23 4 -39 2 -43 -6 -9 -13 12 -29 37 -29 9 0 29 -5 44 -10 24 -10
26 -13 13 -26 -9 -8 -30 -16 -48 -19 -40 -5 -44 -8 -37 -32 4 -12 17 -19 37
-20 37 -3 36 -2 41 -28 2 -15 -2 -19 -18 -17 -25 3 -49 -22 -40 -43 4 -11 17
-15 40 -13 50 3 56 -9 19 -43 -44 -38 -36 -64 18 -55 48 8 58 -7 24 -38 -46
-43 -20 -76 43 -54 28 10 30 -10 2 -44 -17 -22 -18 -27 -5 -44 14 -18 15 -18
46 -1 42 23 54 6 27 -39 -19 -33 -19 -33 1 -44 16 -8 26 -7 46 6 33 21 41 13
28 -30 -17 -55 13 -73 60 -36 30 24 41 13 27 -25 -7 -20 -7 -31 1 -41 16 -19
29 -18 55 7 29 27 44 17 37 -24 -3 -22 0 -37 10 -45 12 -10 20 -7 43 18 16 16
32 30 36 30 5 0 8 -18 8 -40 0 -56 24 -64 59 -21 28 34 41 32 41 -5 0 -62 37
-73 63 -18 20 40 33 37 45 -9 12 -46 38 -47 56 -2 18 43 37 42 48 -3 5 -18 13
-32 17 -32 24 0 41 14 41 34 0 11 4 27 9 35 8 12 12 12 25 2 9 -8 16 -19 16
-25 0 -7 5 -17 12 -24 13 -13 52 3 42 19 -9 16 5 59 20 59 7 0 19 -11 26 -25
21 -40 55 -30 55 15 0 45 26 51 59 13 19 -21 27 -25 37 -16 9 9 9 19 0 43 -6
18 -8 36 -5 41 10 17 43 9 61 -16 23 -31 46 -20 41 20 -3 27 -4 28 -19 12 -15
-15 -18 -14 -37 4 -26 23 -55 25 -76 3 -9 -8 -16 -11 -16 -6 0 6 -39 -1 -87
-15 -99 -28 -282 -41 -348 -25 -34 8 -22 10 75 11 130 1 210 17 314 62 174 76
312 217 386 396 34 81 60 198 60 268 0 53 15 67 24 22 5 -25 9 -29 17 -17 7
11 8 8 3 -13 -8 -34 7 -53 46 -61 35 -7 40 -26 7 -26 -27 0 -70 -28 -62 -40 8
-13 79 1 88 17 7 11 184 13 1037 13 680 0 1030 3 1030 10 0 6 9 10 20 10 11 0
20 7 20 15 0 8 -7 15 -15 15 -8 0 -15 7 -15 15 0 9 9 15 25 15 27 0 34 17 10
26 -25 10 -17 34 10 34 25 0 33 14 15 25 -5 3 -10 13 -10 22 0 11 6 14 24 9
14 -3 28 -2 31 4 4 7 -356 10 -1080 10 -915 0 -1086 2 -1091 14 -3 7 -23 16
-45 20 -48 8 -50 20 -4 42 54 25 41 64 -22 64 -41 0 -41 7 -2 39 22 19 28 31
23 44 -5 15 -14 17 -45 12 -30 -5 -37 -3 -35 8 3 20 26 47 40 47 6 -1 0 -10
-13 -20 -13 -11 -19 -20 -13 -20 30 0 71 79 273 520 121 267 230 505 241 530
33 72 272 593 461 1007 123 271 171 385 163 392 -22 18 -108 41 -153 41 -43 0
-51 -4 -92 -48 -38 -39 -61 -83 -134 -249 -115 -266 -128 -303 -106 -303 11 0
87 -32 129 -54 14 -7 31 -11 38 -9 20 7 14 -29 -17 -103 -109 -263 -486 -1074
-498 -1074 -3 0 -3 6 0 13 3 8 1 20 -4 28 -7 11 -9 11 -9 -3 0 -9 -4 -20 -10
-23 -6 -4 -7 1 -3 11 5 13 3 16 -10 11 -9 -3 -17 -3 -17 2 0 5 -15 14 -32 22
-18 7 -37 19 -41 26 -4 7 -13 13 -18 13 -6 0 -7 -4 -4 -10 3 -5 2 -10 -4 -10
-6 0 -13 11 -17 25 l-6 25 -19 -32 c-23 -39 -141 -279 -194 -393 -36 -80 -75
-124 -107 -125 -20 0 -23 12 -8 38 5 9 54 114 108 232 106 228 392 840 587
1255 224 477 255 544 255 559 0 17 -87 99 -138 131 -63 38 -184 67 -273 63
l-73 -3 -237 -505 c-131 -278 -258 -548 -283 -600 -25 -52 -67 -142 -94 -200
-28 -58 -74 -157 -104 -220 -30 -63 -92 -195 -138 -292 -45 -98 -89 -178 -96
-178 -18 0 -27 19 -16 33 5 7 39 77 75 157 82 182 188 418 511 1132 234 517
256 571 256 621 0 66 -21 97 -91 132 -26 14 -51 25 -53 25 -3 0 -12 -12 -20
-27z m-576 -2063 c12 -7 11 -10 -5 -16 -11 -4 -23 -12 -27 -18 -11 -17 -16 -3
-7 22 9 24 16 26 39 12z m103 -27 c4 -3 -2 -13 -14 -21 -23 -16 -34 -10 -26
13 7 15 28 20 40 8z m-143 -33 c0 -5 -5 -10 -11 -10 -5 0 -7 5 -4 10 3 6 8 10
11 10 2 0 4 -4 4 -10z m230 -20 c-6 -11 -20 -25 -31 -31 -21 -11 -21 -11 -3
20 21 35 52 45 34 11z m-138 -12 c-7 -7 -12 -8 -12 -2 0 14 12 26 19 19 2 -3
-1 -11 -7 -17z m217 -54 c-30 -32 -44 -31 -22 4 21 33 37 45 42 31 2 -6 -7
-21 -20 -35z m-364 -13 c34 -7 28 -8 -40 -9 -127 -2 -240 -30 -336 -85 -38
-21 -52 -47 -26 -47 17 0 78 -32 112 -58 15 -12 34 -22 41 -22 8 0 14 -4 14
-8 0 -13 42 -29 68 -27 32 2 16 -8 -43 -30 -142 -52 -250 -174 -285 -323 -13
-56 -11 -223 3 -233 5 -4 4 -10 -2 -13 -7 -5 -14 4 -18 24 -4 22 -8 27 -14 19
-6 -10 -11 -7 -18 11 -7 18 -10 20 -10 8 -1 -22 -21 -24 -21 -3 0 8 -9 15 -19
15 -11 0 -26 7 -35 15 -8 8 -19 15 -24 15 -6 0 -12 7 -16 15 -3 8 -11 15 -17
15 -8 0 -7 -5 2 -17 12 -14 12 -16 -1 -11 -8 3 -14 15 -13 27 2 11 -2 21 -7
21 -6 0 -10 -5 -10 -12 0 -6 -8 -3 -20 7 -18 16 -20 16 -26 1 -11 -29 -24 -6
-24 42 1 187 115 402 278 524 150 112 357 169 507 139z m475 -19 c0 -5 -13
-18 -30 -30 -34 -26 -38 -22 -12 13 16 24 42 34 42 17z m-532 -124 c-3 -25
-34 -36 -50 -20 -17 17 -1 42 27 42 22 0 26 -4 23 -22z m647 -14 c-23 -23 -11
-29 18 -9 14 9 28 12 31 7 8 -13 -12 -29 -46 -37 -24 -6 -27 -4 -23 14 5 28
14 41 26 41 6 0 3 -7 -6 -16z m-595 -14 c0 -21 -50 -61 -72 -58 -31 4 -35 28
-5 28 13 0 32 9 42 20 20 22 35 26 35 10z m669 -63 c-2 -1 -13 -9 -24 -17 -19
-14 -19 -14 -6 3 7 9 18 17 24 17 6 0 8 -1 6 -3z m28 -30 c-5 -14 -57 -30 -57
-18 0 8 54 41 59 36 2 -2 1 -10 -2 -18z m-613 -56 c57 -25 106 -64 157 -126
45 -55 47 -62 17 -75 -14 -5 -17 -9 -7 -9 8 -1 20 4 26 10 9 9 16 2 28 -27
101 -242 -40 -508 -294 -554 -97 -17 -205 6 -281 61 -31 23 -39 34 -31 42 6 6
11 15 11 21 0 5 -6 1 -14 -9 -14 -19 -15 -19 -42 8 -25 26 -27 30 -14 50 12
20 12 21 -3 9 -17 -14 -37 -9 -37 10 0 6 8 17 18 24 9 7 12 14 5 14 -6 0 -15
-5 -18 -10 -4 -6 -11 -8 -16 -5 -16 11 -10 32 14 43 17 8 18 11 5 11 -9 1 -19
-3 -23 -9 -3 -5 -12 -7 -20 -4 -8 4 -13 10 -10 14 3 5 -1 10 -7 12 -9 4 -13
35 -13 114 0 104 2 113 33 176 55 113 147 190 262 223 73 20 192 14 254 -14z
m336 -305 c-14 -14 -13 -69 2 -84 7 -7 29 -12 49 -12 28 0 41 6 53 25 19 28
36 33 36 9 0 -17 23 -44 38 -44 6 0 13 -6 15 -12 4 -10 8 -9 17 2 9 12 10 -1
6 -57 -6 -83 -41 -192 -88 -271 -44 -74 -162 -191 -223 -221 -28 -14 -54 -27
-59 -29 -5 -3 -6 0 -2 6 4 7 1 12 -8 12 -9 0 -16 7 -16 16 0 10 -5 14 -16 10
-8 -3 -13 -2 -10 3 3 5 -11 17 -32 26 -20 10 -47 27 -59 38 -13 11 -36 20 -52
20 -28 0 -28 1 -9 16 18 15 12 16 -74 13 -65 -3 -112 2 -156 13 -90 25 -85 34
11 17 228 -40 429 76 499 286 10 31 21 96 25 144 l6 87 29 -1 c20 -1 26 -4 18
-12z m2230 -6 c-347 -10 -327 -9 -310 -20 8 -5 10 -10 4 -10 -6 0 -8 -19 -4
-55 4 -34 2 -56 -4 -59 -6 -2 0 -5 14 -7 14 -1 -13 -5 -60 -10 -108 -9 -1052
-9 -1145 1 -38 4 -60 8 -47 8 13 1 21 6 18 10 -11 19 -15 97 -5 109 16 19 0
23 -146 32 -80 5 266 8 900 8 603 -1 928 -4 785 -7z m-2143 -25 c7 -21 -21
-45 -44 -39 -25 7 -29 24 -11 42 15 15 50 12 55 -3z m283 -35 c0 -5 -11 -10
-25 -10 -14 0 -25 5 -25 10 0 6 11 10 25 10 14 0 25 -4 25 -10z m-840 -564 c0
-30 -13 -40 -40 -31 -35 11 -17 55 22 55 12 0 18 -8 18 -24z m50 -31 c0 -21
-36 -55 -59 -55 -29 0 -35 17 -9 26 13 4 29 15 36 25 16 23 32 25 32 4z"/>
<path d="M320 1460 c-20 -20 -25 -45 -14 -74 4 -11 19 -16 50 -16 38 0 45 4
59 30 20 39 19 57 -4 70 -31 16 -69 12 -91 -10z m77 -25 c2 -6 -3 -19 -10 -29
-11 -15 -17 -17 -35 -7 -19 10 -20 15 -11 32 11 21 49 23 56 4z"/>
<path d="M231 1424 c0 -11 3 -14 6 -6 3 7 2 16 -1 19 -3 4 -6 -2 -5 -13z"/>
<path d="M853 1763 c-22 -4 -33 -33 -13 -33 6 0 10 5 10 10 0 6 11 8 25 4 16
-4 25 -2 25 6 0 24 20 -2 21 -28 1 -21 2 -23 6 -7 11 45 46 57 36 12 -4 -20
-3 -21 10 -4 17 20 41 23 34 3 -8 -21 4 -28 18 -9 16 21 34 9 28 -20 -4 -19
-3 -20 7 -4 16 25 39 22 33 -5 -5 -19 -3 -21 8 -10 21 20 41 15 34 -8 -6 -19
-4 -19 19 -9 31 14 34 29 6 29 -10 0 -23 6 -27 13 -4 6 -21 18 -38 26 -16 7
-39 18 -49 23 -20 11 -156 18 -193 11z"/>
<path d="M785 1730 c-3 -5 1 -10 9 -10 9 0 16 5 16 10 0 6 -4 10 -9 10 -6 0
-13 -4 -16 -10z"/>
<path d="M750 1720 c0 -5 5 -10 11 -10 5 0 7 5 4 10 -3 6 -8 10 -11 10 -2 0
-4 -4 -4 -10z"/>
<path d="M875 1710 c3 -5 8 -10 11 -10 2 0 4 5 4 10 0 6 -5 10 -11 10 -5 0 -7
-4 -4 -10z"/>
<path d="M710 1690 c0 -5 5 -10 10 -10 6 0 10 5 10 10 0 6 -4 10 -10 10 -5 0
-10 -4 -10 -10z"/>
<path d="M1169 1644 c-17 -20 -8 -25 20 -10 19 10 20 14 8 19 -9 3 -21 -1 -28
-9z"/>
<path d="M1205 1610 c-10 -11 -13 -20 -8 -20 13 0 38 29 31 35 -3 3 -13 -4
-23 -15z"/>
<path d="M598 1553 c6 -2 18 -2 25 0 6 3 1 5 -13 5 -14 0 -19 -2 -12 -5z"/>
<path d="M578 1513 c7 -3 16 -2 19 1 4 3 -2 6 -13 5 -11 0 -14 -3 -6 -6z"/>
<path d="M553 1423 c9 -2 23 -2 30 0 6 3 -1 5 -18 5 -16 0 -22 -2 -12 -5z"/>
<path d="M540 1381 c0 -5 9 -7 20 -4 11 3 20 7 20 9 0 2 -9 4 -20 4 -11 0 -20
-4 -20 -9z"/>
<path d="M550 1340 c-8 -5 -10 -10 -5 -10 6 0 17 5 25 10 8 5 11 10 5 10 -5 0
-17 -5 -25 -10z"/>
<path d="M550 1290 c0 -5 7 -7 15 -4 8 4 15 8 15 10 0 2 -7 4 -15 4 -8 0 -15
-4 -15 -10z"/>
<path d="M6541 4032 c-21 -45 -27 -50 -85 -69 l-63 -20 -47 24 c-54 27 -46 30
-152 -48 l-51 -38 9 -54 c9 -54 9 -56 -27 -103 -38 -50 -51 -58 -116 -68 -35
-6 -36 -7 -63 -98 l-27 -91 39 -41 c38 -39 39 -44 37 -101 -2 -52 -6 -64 -38
-101 l-36 -41 26 -84 c14 -46 30 -87 36 -90 5 -4 30 -10 56 -13 41 -6 50 -13
81 -56 31 -44 35 -56 35 -112 l0 -63 71 -48 71 -49 48 24 47 25 62 -22 c54
-20 64 -27 86 -69 l25 -46 95 0 95 0 25 47 c23 43 30 49 87 67 l62 20 50 -23
49 -24 34 23 c18 13 51 38 74 56 l41 33 -8 53 c-7 41 -5 57 6 73 9 11 25 34
37 52 18 25 33 33 79 42 l56 11 28 91 28 91 -38 39 c-36 36 -39 42 -39 99 0
57 3 63 38 99 l38 39 -29 89 -29 88 -55 13 c-48 12 -58 19 -90 65 -33 48 -36
57 -32 107 l5 55 -73 54 -72 54 -51 -25 -51 -25 -61 20 c-54 18 -63 24 -85 66
l-24 46 -96 3 -95 3 -23 -49z m241 -143 c29 -6 91 -29 137 -51 233 -111 361
-374 307 -629 -43 -201 -215 -382 -412 -434 -118 -31 -294 -17 -387 32 l-28
14 43 51 c23 28 50 53 60 56 10 2 15 8 12 13 -3 5 67 91 155 191 89 101 161
186 161 190 0 4 -21 10 -47 14 -91 13 -91 3 14 177 l96 158 48 -47 c27 -26 61
-71 76 -100 15 -29 29 -51 31 -49 9 9 -47 96 -95 146 -50 53 -54 59 -43 81 7
13 8 19 3 13 -13 -13 -223 -360 -223 -368 0 -3 21 -9 48 -13 90 -13 95 -1
-113 -239 -107 -121 -198 -219 -204 -218 -6 2 -8 -5 -4 -15 3 -9 3 -14 -2 -10
-4 4 -14 0 -20 -9 -12 -16 -16 -15 -54 11 -23 16 -68 57 -100 92 -207 221
-201 563 14 780 141 142 336 202 527 163z"/>
<path d="M6560 3813 c0 -21 4 -44 9 -52 5 -8 7 4 4 33 -5 41 -3 46 14 46 40 0
59 -50 26 -69 -10 -6 -13 -11 -7 -11 15 0 34 22 34 41 0 25 -27 49 -56 49 -21
0 -24 -4 -24 -37z"/>
<path d="M6670 3841 c0 -4 11 -6 25 -3 14 2 25 6 25 8 0 2 -11 4 -25 4 -14 0
-25 -4 -25 -9z"/>
<path d="M6666 3804 c-12 -32 -6 -44 22 -43 24 2 25 2 4 6 -19 4 -23 9 -18 29
7 27 1 33 -8 8z"/>
<path d="M6908 3754 l-55 -56 -31 16 c-17 9 -37 16 -44 16 -7 -1 3 -8 22 -16
19 -8 36 -17 39 -20 3 -2 -87 -97 -199 -209 -112 -112 -202 -206 -200 -208 3
-3 30 -7 60 -10 l55 -6 -53 12 -52 12 241 240 c133 132 239 231 235 220 -5
-13 -4 -17 3 -10 5 6 11 17 13 25 2 8 10 20 18 27 8 6 13 14 10 17 -3 3 -31
-20 -62 -50z"/>
<path d="M6400 3757 c0 -31 9 -38 32 -26 11 6 25 7 32 2 6 -4 -2 4 -19 19 -37
34 -45 35 -45 5z m29 -1 c9 -10 8 -15 -4 -20 -10 -4 -15 1 -15 14 0 24 4 25
19 6z"/>
<path d="M6633 3743 c15 -2 39 -2 55 0 15 2 2 4 -28 4 -30 0 -43 -2 -27 -4z"/>
<path d="M6349 3722 c5 -9 19 -26 32 -37 19 -16 18 -13 -5 18 -30 39 -43 49
-27 19z"/>
<path d="M6525 3725 c-39 -17 -32 -17 30 0 30 8 40 14 25 14 -14 0 -38 -6 -55
-14z"/>
<path d="M6728 3733 c6 -2 18 -2 25 0 6 3 1 5 -13 5 -14 0 -19 -2 -12 -5z"/>
<path d="M6990 3715 c-26 -32 13 -81 48 -59 34 22 22 74 -18 74 -10 0 -23 -7
-30 -15z m55 -25 c0 -18 -6 -26 -23 -28 -13 -2 -25 3 -28 12 -10 26 4 48 28
44 17 -2 23 -10 23 -28z"/>
<path d="M6287 3697 c-16 -11 -15 -15 20 -47 21 -19 29 -25 19 -12 l-19 22 29
-4 c16 -2 21 -1 12 1 -10 2 -18 9 -18 15 0 7 -5 6 -14 -1 -10 -8 -16 -9 -21
-1 -9 15 5 32 21 26 8 -3 14 -1 14 4 0 14 -23 12 -43 -3z"/>
<path d="M6465 3700 c-3 -6 1 -7 9 -4 18 7 21 14 7 14 -6 0 -13 -4 -16 -10z"/>
<path d="M6402 3659 c-41 -30 -122 -132 -122 -153 0 -5 13 10 28 35 33 50 74
95 117 126 17 13 28 23 24 23 -3 0 -24 -14 -47 -31z"/>
<path d="M6554 3655 c-10 -8 -26 -15 -35 -15 -16 0 -60 -40 -44 -40 4 0 -9
-11 -29 -25 -20 -14 -41 -25 -46 -25 -27 0 -41 -95 -18 -118 14 -14 52 -16 43
-2 -3 6 -15 10 -26 10 -15 0 -19 7 -19 38 0 67 38 82 70 30 26 -43 25 -58 -2
-59 -13 0 -17 -3 -10 -6 6 -2 12 -12 12 -20 0 -11 -9 -14 -35 -11 -19 2 -35 0
-35 -4 0 -4 18 -8 40 -8 29 0 40 4 40 15 0 8 5 15 10 15 6 0 10 10 10 21 0 20
41 69 58 69 12 1 102 97 102 108 0 9 -7 8 -25 0 -33 -15 -43 -3 -20 22 18 19
17 20 -2 20 -10 0 -28 -7 -39 -15z m24 -6 c-36 -21 -15 -59 22 -39 28 15 25 4
-5 -16 -20 -13 -28 -14 -40 -4 -29 24 -9 69 30 69 6 0 2 -4 -7 -10z m-53 -39
c-3 -10 4 -24 17 -36 l23 -19 -20 25 -20 25 23 -19 c21 -18 21 -20 5 -38 -15
-17 -17 -17 -35 -1 -24 22 -55 28 -37 7 6 -7 15 -12 19 -9 5 3 11 1 15 -5 3
-5 1 -10 -6 -10 -7 0 -9 -3 -6 -7 4 -3 0 -14 -9 -24 -16 -17 -18 -16 -41 18
-13 19 -23 36 -21 38 2 1 19 11 38 20 20 10 29 20 22 23 -9 3 -10 8 -3 16 16
19 42 16 36 -4z"/>
<path d="M7062 3646 c-16 -36 -16 -36 14 -36 14 0 23 4 19 10 -3 5 -13 7 -23
4 -13 -5 -14 -4 -4 4 8 5 12 18 10 28 -2 14 -5 13 -16 -10z"/>
<path d="M6230 3613 c0 -12 39 -73 46 -73 4 0 1 6 -5 13 -13 17 4 43 34 50 16
4 14 5 -6 6 -17 1 -29 -5 -33 -16 -6 -15 -8 -15 -16 -3 -6 9 -5 17 3 22 8 5 6
8 -5 8 -10 0 -18 -3 -18 -7z"/>
<path d="M7026 3597 c3 -10 9 -15 12 -12 3 3 0 11 -7 18 -10 9 -11 8 -5 -6z"/>
<path d="M7071 3564 c0 -11 3 -14 6 -6 3 7 2 16 -1 19 -3 4 -6 -2 -5 -13z"/>
<path d="M7136 3544 c-4 -11 -14 -15 -31 -12 -13 3 -22 1 -19 -3 8 -14 40 -10
54 6 7 9 11 18 8 21 -3 3 -8 -3 -12 -12z"/>
<path d="M6193 3539 c21 -13 22 -38 1 -46 -13 -5 -13 -7 -2 -14 17 -11 31 -11
24 0 -13 21 7 43 33 37 18 -4 13 1 -14 14 -42 20 -72 26 -42 9z"/>
<path d="M7135 3500 c-24 -26 -26 -30 -10 -30 10 0 15 3 12 7 -4 3 3 17 15 30
12 13 19 23 17 23 -3 0 -18 -13 -34 -30z"/>
<path d="M6266 3475 c-9 -26 -7 -32 5 -12 6 10 9 21 6 23 -2 3 -7 -2 -11 -11z"/>
<path d="M7153 3480 c2 -8 12 -16 23 -17 13 -2 15 -1 4 4 -8 3 -19 11 -23 17
-6 7 -7 6 -4 -4z"/>
<path d="M7052 3450 c0 -8 4 -26 8 -40 6 -20 8 -21 8 -5 0 11 -3 29 -8 40 -5
12 -8 14 -8 5z"/>
<path d="M6158 3443 c7 -3 16 -2 19 1 4 3 -2 6 -13 5 -11 0 -14 -3 -6 -6z"/>
<path d="M6197 3432 c8 -5 1 -14 -23 -27 -37 -20 -30 -36 16 -34 23 1 22 2 -5
8 l-30 7 32 17 c41 22 50 37 21 37 -15 0 -19 -3 -11 -8z"/>
<path d="M6244 3394 c-9 -62 1 -164 21 -205 8 -19 13 -25 9 -14 -21 72 -23 68
76 110 96 40 147 85 137 122 -4 16 -5 16 -6 -2 -2 -38 -45 -74 -129 -110 -46
-19 -88 -35 -94 -35 -7 0 -9 31 -5 90 6 98 2 117 -9 44z"/>
<path d="M7140 3430 c-8 -5 -10 -10 -5 -10 6 0 17 5 25 10 8 5 11 10 5 10 -5
0 -17 -5 -25 -10z"/>
<path d="M7169 3411 c11 -7 10 -12 -8 -22 -30 -19 -26 -29 12 -28 29 1 30 2 7
8 l-24 7 22 16 c20 13 21 16 7 22 -24 9 -32 7 -16 -3z"/>
<path d="M6295 3390 c-27 -7 -27 -8 -5 -8 14 0 39 4 55 8 27 7 27 8 5 8 -14 0
-38 -4 -55 -8z"/>
<path d="M7073 3320 c0 -25 2 -35 4 -22 2 12 2 32 0 45 -2 12 -4 2 -4 -23z"/>
<path d="M7139 3333 c-12 -16 -12 -17 1 -7 8 6 22 14 30 17 13 5 12 6 -1 6 -9
1 -23 -7 -30 -16z"/>
<path d="M6134 3315 c1 -17 8 -20 46 -20 41 0 45 2 47 25 3 25 3 25 -7 3 -5
-13 -16 -23 -24 -23 -8 0 -17 10 -19 23 l-4 22 -2 -22 c-1 -27 -28 -31 -34 -5
-3 13 -4 12 -3 -3z"/>
<path d="M7170 3280 c-23 -7 -23 -8 -3 -9 12 -1 25 4 28 9 3 6 5 10 3 9 -2 -1
-14 -5 -28 -9z"/>
<path d="M6208 3254 c45 -31 6 -94 -40 -65 -21 13 -22 13 -9 -2 26 -32 81 -10
81 33 0 21 -25 50 -43 50 -6 0 -1 -7 11 -16z"/>
<path d="M7061 3250 c-1 -14 -12 -51 -25 -82 -13 -32 -20 -55 -15 -53 14 9 50
118 46 139 -4 18 -5 17 -6 -4z"/>
<path d="M7120 3254 c0 -18 4 -20 28 -16 22 5 24 7 7 10 -11 2 -23 9 -27 16
-5 6 -8 3 -8 -10z"/>
<path d="M6568 3252 c9 -7 -3 -42 -50 -145 -35 -75 -67 -136 -71 -137 -10 0
-127 117 -145 145 -7 11 -6 6 2 -11 9 -17 44 -58 80 -90 64 -59 64 -60 49 -88
-8 -15 -13 -30 -10 -32 2 -2 19 28 37 68 19 40 57 124 86 186 51 106 52 112
31 112 -15 0 -18 -3 -9 -8z"/>
<path d="M6143 3235 c-3 -9 -3 -18 -1 -21 3 -3 8 4 11 16 6 23 -1 27 -10 5z"/>
<path d="M6837 3233 c-3 -5 15 -6 40 -4 40 3 45 1 40 -14 -4 -9 -7 -19 -7 -21
0 -3 -4 -3 -9 0 -5 4 -28 -13 -50 -36 -30 -32 -41 -51 -41 -74 0 -17 -6 -37
-14 -43 -12 -10 -15 -6 -19 26 l-4 38 -1 -40 c-1 -23 -8 -47 -14 -55 -7 -7 5
0 28 15 34 24 39 33 36 57 -3 23 3 36 31 63 20 19 40 35 45 35 5 0 15 7 23 16
7 9 22 14 36 11 12 -2 20 0 17 4 -3 5 -14 9 -24 9 -10 0 -22 5 -25 10 -7 12
-82 14 -88 3z"/>
<path d="M6796 3215 c-11 -8 -15 -15 -9 -15 6 0 16 7 23 15 16 19 11 19 -14 0z"/>
<path d="M6994 3188 c1 -15 -7 -24 -24 -29 -25 -8 -25 -8 -1 -6 29 2 51 31 35
47 -8 8 -10 4 -10 -12z"/>
<path d="M7151 3207 c2 -1 13 -9 24 -17 19 -14 19 -14 6 3 -7 9 -18 17 -24 17
-6 0 -8 -1 -6 -3z"/>
<path d="M6751 3164 c-12 -15 -21 -36 -20 -48 1 -17 3 -15 9 8 5 15 17 37 26
47 9 10 14 19 11 19 -3 0 -15 -12 -26 -26z"/>
<path d="M6790 3160 c-14 -10 -23 -21 -20 -23 3 -2 16 6 30 19 30 29 25 31
-10 4z"/>
<path d="M7120 3170 c8 -5 26 -10 39 -10 32 0 24 6 -19 14 -25 4 -31 3 -20 -4z"/>
<path d="M6210 3138 c-32 -17 -25 -18 16 -1 14 5 15 3 4 -16 -6 -13 -10 -25
-7 -27 2 -3 10 9 17 26 7 17 11 32 9 34 -2 2 -20 -5 -39 -16z"/>
<path d="M6862 3124 c-12 -8 -22 -23 -21 -32 0 -13 3 -11 9 5 5 13 23 26 42
32 21 6 26 10 13 10 -11 1 -31 -6 -43 -15z"/>
<path d="M7099 3122 c5 -10 17 -25 26 -32 13 -11 15 -10 9 4 -3 9 -10 16 -15
16 -5 0 -9 5 -9 11 0 6 6 9 13 6 6 -2 21 -1 32 4 15 6 9 8 -23 8 -38 1 -42 -1
-33 -17z"/>
<path d="M6238 3087 c-16 -6 -28 -15 -28 -19 0 -7 55 16 69 28 7 7 -13 2 -41
-9z"/>
<path d="M6988 3080 c-7 -11 -18 -20 -24 -20 -6 0 -21 -11 -34 -25 -13 -14
-20 -25 -16 -25 5 0 2 -8 -5 -17 -7 -10 4 -2 25 17 38 36 82 90 72 90 -3 0
-11 -9 -18 -20z m-28 -33 c0 -2 -10 -12 -22 -23 l-23 -19 19 23 c18 21 26 27
26 19z"/>
<path d="M6302 3060 c16 -25 3 -38 -23 -22 -18 12 -19 11 -10 -7 15 -27 -6
-39 -24 -15 -8 11 -15 14 -15 8 0 -6 7 -17 15 -24 11 -9 21 -6 50 16 34 25 35
28 19 45 -22 25 -27 24 -12 -1z"/>
<path d="M6721 3064 c0 -11 -12 -31 -26 -44 -20 -19 -25 -32 -23 -69 l1 -46 4
45 c3 37 10 51 41 78 20 19 32 31 25 28 -6 -3 -14 2 -16 11 -4 15 -5 14 -6 -3z"/>
<path d="M6850 3045 c0 -12 -6 -27 -12 -35 -7 -7 4 -1 25 15 20 15 37 30 37
32 0 3 -7 0 -16 -8 -13 -10 -17 -10 -25 2 -7 11 -9 10 -9 -6z"/>
<path d="M7023 3035 c-3 -9 -3 -18 -1 -21 3 -3 8 4 11 16 6 23 -1 27 -10 5z"/>
<path d="M7051 3016 c-9 -10 -8 -16 4 -26 13 -11 19 -10 33 5 16 18 16 18 0 6
-22 -17 -44 -5 -27 15 6 8 9 14 6 14 -2 0 -10 -6 -16 -14z"/>
<path d="M6864 2964 c-18 -14 -18 -15 4 -4 12 6 22 13 22 15 0 8 -5 6 -26 -11z"/>
<path d="M6940 2953 c0 -7 10 -24 23 -39 22 -25 23 -25 37 -8 14 17 13 18 -2
6 -22 -17 -35 3 -16 26 12 15 11 16 -4 4 -14 -11 -18 -10 -27 5 -6 10 -11 13
-11 6z"/>
<path d="M6810 2940 c-8 -5 -10 -10 -5 -10 6 0 17 5 25 10 8 5 11 10 5 10 -5
0 -17 -5 -25 -10z"/>
<path d="M6538 2923 c7 -3 16 -2 19 1 4 3 -2 6 -13 5 -11 0 -14 -3 -6 -6z"/>
<path d="M6583 2913 c9 -2 23 -2 30 0 6 3 -1 5 -18 5 -16 0 -22 -2 -12 -5z"/>
<path d="M6920 2892 c12 -18 26 -30 31 -27 11 8 12 16 0 13 -4 -2 -18 8 -31
22 l-22 25 22 -33z"/>
<path d="M6898 2873 c5 -21 7 -23 10 -9 2 10 0 22 -6 28 -6 6 -7 0 -4 -19z"/>
<path d="M6500 2869 c-12 -8 -10 -9 8 -4 13 4 30 1 40 -7 15 -12 16 -11 3 5
-15 19 -29 21 -51 6z"/>
<path d="M6775 2869 c-4 -6 -4 -13 -1 -16 3 -4 6 -1 6 5 0 7 7 12 15 12 8 0
15 -5 15 -10 0 -6 -7 -13 -15 -16 -8 -4 -15 -14 -14 -23 0 -10 2 -11 6 -4 3
10 10 10 26 2 20 -9 20 -9 5 4 -12 10 -14 17 -7 24 6 6 8 16 5 22 -9 14 -33
14 -41 0z"/>
<path d="M6831 2869 c-1 -9 7 -23 17 -30 15 -12 16 -12 6 1 -6 8 -14 22 -17
30 -5 13 -6 12 -6 -1z"/>
<path d="M6740 2845 c0 -14 2 -25 4 -25 2 0 6 11 8 25 3 14 1 25 -3 25 -5 0
-9 -11 -9 -25z"/>
<path d="M6575 2850 c-3 -6 1 -7 9 -4 18 7 21 14 7 14 -6 0 -13 -4 -16 -10z"/>
<path d="M6622 2846 c7 -8 15 -12 17 -11 5 6 -10 25 -20 25 -5 0 -4 -6 3 -14z"/>
<path d="M6481 2839 c-1 -9 7 -23 17 -30 15 -12 16 -12 6 1 -6 8 -14 22 -17
30 -5 13 -6 12 -6 -1z"/>
<path d="M6661 2844 c0 -5 13 -19 30 -32 l29 -24 -1 34 c-1 25 -3 27 -6 10
l-5 -24 -24 23 c-13 12 -24 18 -23 13z"/>
<path d="M6560 2823 c0 -13 33 -43 47 -43 6 0 17 7 24 17 13 15 12 15 -9 2
-21 -13 -25 -12 -43 10 -10 13 -19 19 -19 14z"/>
<path d="M6661 2794 c0 -11 3 -14 6 -6 3 7 2 16 -1 19 -3 4 -6 -2 -5 -13z"/>
<path d="M3709 2879 c-50 -8 -91 -33 -133 -79 -36 -40 -75 -111 -76 -137 0
-10 104 -13 485 -13 381 0 485 3 485 13 0 6 11 59 23 117 l23 105 -386 0
c-213 0 -402 -3 -421 -6z"/>
<path d="M2486 2858 c-3 -13 -13 -59 -22 -103 -9 -44 -21 -85 -26 -92 -7 -9
60 -12 284 -15 332 -3 340 -5 378 -83 20 -41 27 -129 12 -151 -5 -8 -121 -13
-362 -18 -237 -5 -357 -11 -361 -18 -4 -6 -12 -38 -18 -72 -7 -34 -33 -160
-58 -281 -25 -121 -46 -228 -45 -239 2 -46 94 -106 162 -106 22 0 40 1 40 3 0
4 86 413 95 455 l5 22 241 0 242 0 -7 -49 c-4 -27 -15 -81 -24 -120 l-18 -71
121 0 121 0 62 293 c70 329 75 384 38 464 -30 64 -95 136 -155 171 l-46 27
-327 3 -327 3 -5 -23z m-175 -1095 c13 -16 12 -17 -3 -4 -17 13 -22 21 -14 21
2 0 10 -8 17 -17z"/>
<path d="M4686 2858 c-3 -13 -13 -59 -22 -103 -9 -44 -21 -86 -27 -92 -7 -10
90 -13 480 -13 l490 0 6 36 c3 20 3 50 -1 68 -6 27 -8 23 -12 -29 l-5 -60
-100 -3 c-172 -6 -553 9 -528 21 21 9 22 16 21 89 -1 53 3 82 11 87 13 8 -139
21 -246 21 -57 0 -63 -2 -67 -22z"/>
<path d="M3926 2402 c-369 -2 -482 -5 -488 -15 -29 -46 12 -165 71 -204 33
-23 40 -23 322 -23 284 0 289 0 289 -20 0 -61 -77 -161 -155 -203 -38 -21 -55
-22 -331 -25 l-292 -4 -20 -96 c-12 -54 -24 -105 -27 -115 -7 -16 13 -17 294
-17 279 0 306 2 364 21 150 51 285 161 350 286 29 56 46 111 73 235 19 90 33
167 32 173 -2 7 -165 9 -482 7z"/>
<path d="M4586 2389 c-3 -8 -20 -79 -38 -159 -42 -185 -44 -271 -7 -350 37
-77 98 -143 161 -171 50 -23 65 -24 293 -27 132 -2 254 -1 272 3 62 11 183
152 183 213 0 23 -17 4 -23 -26 -8 -38 -76 -124 -122 -152 -39 -24 -52 -25
-265 -20 -101 2 -123 5 -85 10 28 4 39 8 25 9 -14 1 -20 5 -15 9 6 4 10 39 10
77 -1 39 3 76 8 83 7 9 -2 12 -39 13 -73 0 -112 18 -147 66 -31 44 -46 117
-33 167 l6 26 365 0 c201 0 365 2 365 4 0 8 41 202 46 221 4 14 3 17 -4 10 -6
-6 -21 -56 -33 -113 l-22 -102 -281 1 c-154 1 -267 4 -251 7 26 4 28 5 10 12
-18 8 -18 9 -1 9 11 1 16 6 13 15 -3 8 -3 17 0 20 4 3 5 33 4 65 -2 48 1 61
16 70 14 8 -2 10 -67 11 -47 0 -142 3 -212 7 -105 5 -128 4 -132 -8z"/>
<path d="M6799 2363 c6 -10 184 -193 395 -408 212 -214 382 -392 380 -395 -3
-2 -184 175 -402 393 -330 331 -398 396 -408 383 -9 -13 -48 -16 -255 -17
-188 0 -251 -4 -274 -15 -16 -8 -209 -196 -429 -419 -219 -223 -405 -405 -412
-405 -9 0 -14 -13 -15 -37 0 -41 -17 -94 -18 -60 -1 16 -20 17 -246 17 -160 0
-245 4 -245 10 0 6 -11 8 -25 4 -28 -7 -33 7 -10 26 23 19 18 30 -15 30 -31 0
-41 16 -16 26 8 3 12 12 9 20 -4 11 -14 13 -35 9 -28 -7 -29 -6 -18 15 15 27
-2 52 -22 32 -20 -20 -28 -14 -21 18 4 23 2 30 -10 30 -9 0 -19 -4 -22 -10
-12 -20 -27 -10 -21 14 8 32 -10 43 -35 20 -18 -17 -19 -16 -19 14 0 35 -10
41 -30 17 -18 -22 -30 -18 -30 10 0 28 -27 35 -36 10 -9 -22 -22 -18 -26 7 -4
29 -28 35 -35 9 -7 -28 -21 -27 -29 4 -3 14 -10 25 -15 25 -5 0 -14 -11 -19
-25 -12 -32 -18 -31 -30 1 -9 22 -13 24 -25 14 -8 -7 -15 -20 -15 -29 -1 -12
-5 -11 -20 7 -19 23 -42 22 -39 -1 4 -36 -2 -40 -25 -18 -26 25 -42 15 -31
-19 8 -25 -10 -26 -33 -3 -16 16 -17 15 -20 -1 -2 -9 1 -23 8 -30 8 -11 3 -19
-24 -35 -54 -34 -141 -134 -172 -198 -17 -36 -32 -92 -40 -148 -6 -49 -12 -82
-13 -72 -1 9 -7 17 -15 17 -8 0 -21 3 -30 6 -11 4 -16 1 -16 -10 0 -10 9 -16
25 -16 14 0 25 -5 25 -10 0 -15 -43 -29 -56 -19 -7 6 -463 9 -1088 9 -1071 -1
-1076 -1 -1076 -21 0 -12 12 -27 30 -37 39 -22 33 -36 -18 -43 -55 -7 -58 -12
-27 -42 27 -24 31 -65 7 -60 -7 2 -12 0 -12 -5 0 -4 505 -6 1121 -4 718 1
1126 -1 1133 -7 7 -6 23 -7 36 -4 24 6 24 6 7 -20 -19 -29 -9 -42 23 -32 18 6
19 3 14 -24 -5 -24 -3 -31 9 -31 9 0 19 5 22 10 11 18 26 0 15 -20 -13 -25 12
-47 30 -25 20 24 30 18 24 -15 -7 -35 8 -40 39 -13 19 18 20 17 13 -10 -8 -33
20 -51 36 -24 13 25 28 21 28 -7 0 -33 16 -42 30 -16 15 28 30 25 30 -5 0 -30
26 -34 35 -5 8 26 23 25 27 -2 5 -32 26 -33 39 -1 l12 28 10 -28 c14 -34 25
-34 38 1 l11 27 15 -23 c20 -29 29 -28 37 3 7 28 21 33 30 10 9 -24 39 -19 33
5 -7 27 10 36 32 16 26 -24 34 -20 28 14 -7 34 6 39 35 13 17 -15 18 -15 18 4
0 11 -6 20 -12 21 -7 1 -25 4 -40 8 -19 4 -28 2 -28 -5 0 -7 -3 -10 -8 -7 -4
2 -32 -2 -62 -10 -30 -8 -86 -13 -125 -13 l-70 2 80 7 c44 4 100 16 125 25 65
26 145 81 181 124 50 61 96 164 110 247 6 41 15 70 19 64 5 -8 11 -7 22 3 7 8
24 18 36 21 28 9 28 21 1 39 -13 9 -16 17 -10 22 6 3 11 15 11 26 0 19 -10 23
-40 19 -12 -1 -12 1 -3 11 18 18 89 21 288 11 147 -7 161 -9 80 -11 l-100 -1
-4 -113 c-2 -61 -4 -128 -5 -147 0 -19 -5 -38 -11 -42 -5 -4 -54 -8 -107 -8
-90 0 -98 2 -98 19 0 11 -4 23 -10 26 -6 3 -7 -1 -4 -9 6 -15 -5 -20 -33 -17
-18 3 -16 -13 5 -32 14 -13 54 -15 267 -16 249 0 250 0 253 -22 5 -31 -17 -50
-24 -21 -4 12 -10 22 -15 22 -12 0 -1 -48 17 -76 20 -33 816 -831 841 -843 25
-13 55 -15 37 -3 -6 4 -15 15 -20 24 -5 9 -188 197 -408 418 -219 220 -395
404 -392 408 4 3 183 -170 399 -386 l391 -392 275 0 275 0 371 369 c403 402
461 449 484 389 9 -23 9 -23 16 4 4 15 4 35 1 46 -9 27 -36 37 -36 14 0 -11
-19 -25 -53 -40 -52 -22 -57 -22 -317 -16 -185 5 -277 3 -306 -5 -27 -7 -59
-29 -95 -64 -30 -30 -91 -88 -136 -130 l-82 -77 -90 0 -90 0 -30 43 c-16 23
-118 130 -225 237 -108 107 -196 199 -196 205 0 5 93 -84 208 -198 114 -114
214 -207 222 -207 8 0 -83 98 -203 218 l-218 219 -1 66 c-1 37 -4 67 -7 67
-23 -1 -33 -23 -32 -73 0 -62 -14 -82 -29 -42 -15 39 -12 123 5 159 9 18 116
132 238 253 245 244 237 239 361 231 l64 -4 134 -136 133 -136 65 -12 c85 -16
358 -16 407 1 50 16 231 6 273 -16 27 -14 29 -18 19 -38 -11 -20 -11 -21 4 -8
46 37 38 48 -385 475 -371 377 -458 460 -429 409z m-338 -83 c35 -10 88 -55
77 -66 -4 -3 -20 2 -37 10 -45 24 -104 21 -127 -6 -10 -12 -14 -18 -7 -15 6 4
18 -1 25 -10 7 -10 24 -20 38 -21 14 -2 26 -5 28 -6 7 -8 -41 -54 -60 -59 -13
-2 -31 -8 -40 -12 -13 -5 -15 -2 -11 14 3 12 1 21 -6 21 -6 0 -11 -6 -11 -12
0 -10 -2 -10 -9 0 -7 11 -10 10 -15 -3 -11 -30 -7 -105 7 -105 6 0 21 -7 31
-15 19 -14 12 -23 -130 -166 -190 -192 -370 -359 -361 -336 4 10 3 16 -3 12
-5 -3 -15 3 -22 15 -7 11 -17 20 -23 20 -5 0 -40 -26 -78 -59 -64 -56 -70 -58
-117 -56 -28 1 -50 -2 -50 -6 0 -5 -7 -5 -17 -2 -12 5 -14 3 -8 -7 6 -10 4
-12 -8 -7 -11 4 -17 1 -17 -7 0 -8 -10 -21 -22 -29 -13 -9 -18 -16 -11 -16 6
-1 15 4 18 9 3 6 11 10 16 10 6 0 7 -5 4 -10 -4 -6 -3 -9 2 -8 4 1 19 -2 32
-6 l24 -8 -29 -24 -29 -24 30 15 c34 17 81 20 90 5 3 -6 -1 -7 -9 -4 -9 3 -16
2 -16 -3 0 -6 -22 -24 -50 -41 -28 -18 -50 -39 -51 -49 -1 -13 -3 -10 -9 7
l-8 25 -2 -25 c-1 -14 -2 -28 -1 -32 0 -3 -13 1 -29 9 -23 11 -30 22 -31 46
-2 27 -2 28 -6 7 -6 -35 -19 -45 -26 -21 -3 12 0 21 6 21 7 0 5 5 -3 10 -8 5
-10 10 -4 10 6 0 11 15 12 33 1 19 7 47 13 63 7 16 13 34 13 39 2 17 108 65
145 66 20 0 43 3 53 7 22 9 131 113 401 379 220 218 227 226 227 264 0 69 45
129 117 154 47 17 41 17 84 5z m64 -174 c8 4 15 1 15 -5 0 -6 7 -8 16 -4 11 4
24 -3 36 -18 19 -24 19 -24 13 -1 -4 12 -3 22 1 22 5 0 113 -105 241 -232
l233 -233 93 -5 c72 -4 91 -8 89 -19 -2 -8 3 -18 10 -22 7 -5 -63 -9 -155 -9
l-168 0 -206 205 c-114 113 -209 205 -213 205 -3 0 -10 -10 -15 -22 -8 -18
-24 -26 -69 -35 -57 -11 -62 -14 -210 -160 -122 -120 -401 -392 -409 -400 -8
-7 -57 -10 -57 -4 0 4 33 39 73 76 39 38 179 174 310 301 158 155 243 231 252
227 29 -11 80 6 91 31 9 19 9 23 -2 19 -15 -6 -104 32 -104 45 0 4 23 20 52
35 44 23 53 25 60 12 5 -8 15 -12 23 -9z m-2142 -463 c-7 -2 -19 -2 -25 0 -7
3 -2 5 12 5 14 0 19 -2 13 -5z m-58 -10 c-49 -11 -112 -35 -138 -52 l-28 -18
49 -26 c27 -14 52 -24 55 -21 3 3 8 -4 12 -17 4 -12 10 -17 14 -12 3 6 14 7
26 2 17 -7 18 -8 2 -8 -56 -3 -152 -85 -186 -161 -22 -49 -28 -150 -11 -194 7
-20 6 -24 -5 -20 -8 3 -14 9 -13 12 2 20 -3 32 -12 27 -6 -3 -13 1 -16 9 -3 9
-12 16 -19 16 -7 0 -29 11 -49 25 -20 13 -43 22 -51 19 -20 -8 -20 33 0 109
38 146 134 248 280 299 27 10 64 17 80 17 20 -1 23 -3 10 -6z m55 -78 c0 -8
-7 -15 -15 -15 -8 0 -15 7 -15 15 0 8 7 15 15 15 8 0 15 -7 15 -15z m2697 -6
c-29 -6 -60 -6 -80 0 -26 8 -18 9 48 9 77 0 78 -1 32 -9z m-2667 -14 c0 -21
-39 -40 -53 -26 -8 8 -7 11 5 11 8 0 21 7 28 15 16 19 20 19 20 0z m65 -93
c17 -8 44 -28 62 -45 30 -28 31 -31 15 -44 -16 -13 -15 -14 4 -8 51 14 80
-157 40 -235 -25 -49 -64 -88 -111 -113 -51 -27 -155 -29 -201 -5 -47 26 -117
96 -108 109 4 8 3 9 -4 5 -7 -4 -12 -1 -12 8 0 8 -6 16 -12 19 -9 2 -13 29
-13 84 0 71 3 85 30 129 65 104 206 148 310 96z m1065 -72 c0 -5 -2 -10 -4
-10 -3 0 -8 5 -11 10 -3 6 -1 10 4 10 6 0 11 -4 11 -10z m-870 -102 c0 -5 -4
-7 -9 -4 -4 3 -6 -7 -3 -22 9 -46 39 -55 72 -20 l20 22 0 -25 c0 -19 2 -21 10
-9 7 12 10 12 10 1 0 -7 6 -11 15 -7 39 15 0 -149 -54 -227 -17 -25 -51 -62
-75 -82 -46 -37 -108 -63 -101 -42 4 12 -57 57 -76 57 -5 0 -9 4 -9 10 0 5 -3
9 -7 9 -5 -1 -12 0 -18 1 -13 4 -51 7 -96 9 -19 0 -44 8 -55 16 -17 13 -16 14
14 4 45 -15 130 -6 179 19 48 25 107 89 128 138 8 20 18 67 21 105 5 51 10 66
20 62 8 -3 14 -9 14 -15z m40 -28 c0 -5 -4 -10 -10 -10 -5 0 -10 5 -10 10 0 6
5 10 10 10 6 0 10 -4 10 -10z m1039 -25 c46 14 22 -89 -28 -125 -25 -17 -30
-18 -55 -4 -16 7 -40 14 -55 15 l-26 1 25 8 c23 7 23 8 3 9 -39 2 -55 12 -42
27 6 8 19 14 29 14 25 0 89 52 90 73 0 15 2 15 21 -4 12 -12 27 -18 38 -14z
m61 -25 c-8 -5 -7 -9 4 -13 8 -3 17 -1 20 6 2 7 5 -2 5 -18 1 -35 -14 -55 -42
-55 -15 0 -18 -5 -13 -22 4 -17 -2 -30 -27 -50 -36 -31 -43 -33 -53 -16 -5 7
-2 10 7 6 19 -7 74 48 58 58 -7 4 -9 3 -6 -3 8 -13 -14 -24 -73 -38 -22 -5
-22 -4 -4 4 32 14 82 77 95 120 8 28 16 38 26 34 11 -4 11 -8 3 -13z m-2255
-50 l120 -6 -132 -2 -132 -2 2 -62 c1 -35 6 -68 10 -74 5 -9 -80 -14 -318 -19
-342 -8 -1006 2 -985 15 7 4 12 35 13 74 l2 66 -130 2 -130 2 115 6 c161 8
1420 9 1565 0z m-1692 -7 c-7 -2 -19 -2 -25 0 -7 3 -2 5 12 5 14 0 19 -2 13
-5z m2032 -43 c-3 -5 -11 -10 -16 -10 -6 0 -7 5 -4 10 3 6 11 10 16 10 6 0 7
-4 4 -10z m2196 -287 l254 -257 52 2 c29 1 68 -4 86 -11 19 -8 41 -11 52 -6
11 4 97 85 190 179 94 94 182 178 197 186 20 10 65 14 171 14 130 0 146 -2
167 -20 l23 -20 -93 0 -93 0 -241 -237 c-132 -130 -254 -249 -270 -264 -17
-16 -27 -32 -23 -36 4 -4 126 111 270 255 l263 263 97 -3 c80 -3 95 -5 88 -17
-6 -10 -36 -16 -90 -20 l-80 -6 -93 -90 c-51 -49 -184 -180 -296 -292 -111
-111 -211 -207 -222 -213 -32 -17 -95 -12 -115 9 -17 20 -16 20 35 19 41 -1
56 3 66 17 18 24 18 39 0 32 -8 -3 -17 -3 -21 1 -4 4 -10 7 -13 8 -15 1 -62
28 -62 35 0 4 21 19 47 33 32 18 50 23 57 16 5 -5 18 -10 27 -10 10 0 19 -6
21 -12 3 -8 9 -4 17 10 13 25 5 92 -11 92 -5 0 -22 8 -36 19 -36 25 -86 35
-111 21 -15 -7 -27 -8 -40 0 -16 8 -24 4 -49 -26 l-30 -36 -26 18 c-32 24
-299 294 -389 393 -66 74 -77 91 -57 91 6 0 22 11 36 25 20 20 23 28 14 45 -6
11 -15 20 -19 20 -5 0 -11 7 -15 15 -3 8 -2 15 2 15 5 0 123 -116 263 -257z
m-548 194 c4 6 29 9 57 8 27 -1 50 1 50 5 0 4 10 6 23 5 22 -2 25 -20 6 -40
-14 -14 -109 -11 -137 4 -12 6 -22 19 -21 29 0 14 2 14 8 -2 4 -12 10 -15 14
-9z m-1167 -135 c-4 -3 -12 0 -19 7 -9 9 -9 14 3 21 11 7 16 5 18 -6 2 -9 1
-18 -2 -22z m23 -23 c-29 -18 -44 -9 -19 11 15 11 26 15 29 8 2 -6 -3 -14 -10
-19z m1994 -383 c4 4 7 0 7 -8 0 -8 8 -15 18 -15 41 0 43 -2 26 -28 -9 -14
-25 -25 -36 -25 -10 0 -30 -8 -45 -17 -25 -17 -25 -17 -19 4 12 37 -31 25 -45
-12 l-11 -30 -11 24 c-9 18 -8 26 4 35 8 6 21 26 28 44 8 18 23 39 35 47 18
14 21 13 31 -5 6 -12 14 -17 18 -14z"/>
<path d="M5435 1299 c-4 -6 -5 -12 -2 -15 2 -3 7 2 10 11 7 17 1 20 -8 4z"/>
<path d="M5445 1229 c-4 -6 -4 -13 -1 -16 8 -8 36 5 36 17 0 13 -27 13 -35 -1z"/>
<path d="M7071 1604 c12 -15 54 -20 45 -5 -3 5 -17 11 -31 13 -20 4 -23 3 -14
-8z"/>
<path d="M4012 1261 c-8 -4 -12 -19 -10 -32 4 -33 52 -39 68 -9 6 12 9 28 6
36 -6 15 -43 19 -64 5z m38 -21 c0 -5 -4 -10 -10 -10 -5 0 -10 5 -10 10 0 6 5
10 10 10 6 0 10 -4 10 -10z"/>
<path d="M4343 1443 c-13 -2 -23 -9 -23 -14 0 -6 4 -8 9 -4 5 3 23 7 40 9 23
2 31 -1 31 -13 0 -14 2 -14 11 -1 7 11 12 12 15 3 3 -7 11 -10 18 -7 8 3 20
-1 27 -9 8 -7 20 -12 27 -9 8 2 10 -2 5 -15 -6 -16 -5 -16 10 -4 16 13 16 14
0 26 -10 7 -21 11 -25 9 -5 -3 -8 -1 -8 4 0 17 -93 34 -137 25z"/>
<path d="M4525 1370 c-3 -5 -2 -10 4 -10 5 0 13 5 16 10 3 6 2 10 -4 10 -5 0
-13 -4 -16 -10z"/>
<path d="M5667 1145 c-15 -14 -24 -25 -19 -25 5 0 19 11 32 25 30 32 23 32
-13 0z"/>
<path d="M6568 1759 c-11 -12 -13 -19 -6 -19 7 0 73 -61 148 -135 75 -74 144
-135 154 -135 16 0 15 3 -5 33 -23 34 -260 278 -269 276 -3 0 -13 -9 -22 -20z"/>
<path d="M80 1556 c0 -2 7 -7 16 -10 8 -3 12 -2 9 4 -6 10 -25 14 -25 6z"/>
<path d="M60 1460 c0 -14 29 -32 40 -25 17 11 11 22 -15 27 -14 3 -25 2 -25
-2z"/>
<path d="M3868 1253 c7 -3 16 -2 19 1 4 3 -2 6 -13 5 -11 0 -14 -3 -6 -6z"/>
<path d="M4885 1230 c3 -5 -3 -10 -14 -10 -14 0 -21 -6 -21 -18 0 -27 8 -31
41 -19 31 12 36 26 17 45 -15 15 -32 16 -23 2z"/>
<path d="M4893 1163 c4 -4 -7 -13 -25 -22 l-33 -15 29 -4 c17 -2 35 3 44 11
15 16 9 37 -10 37 -6 0 -8 -3 -5 -7z"/>
<path d="M4835 1010 c27 -12 35 -12 35 0 0 6 -12 10 -27 9 -25 0 -26 -1 -8 -9z"/>
<path d="M1608 953 c6 -2 18 -2 25 0 6 3 1 5 -13 5 -14 0 -19 -2 -12 -5z"/>
<path d="M1540 870 c0 -5 5 -10 10 -10 6 0 10 5 10 10 0 6 -4 10 -10 10 -5 0
-10 -4 -10 -10z"/>
<path d="M1621 861 c-8 -5 -9 -11 -3 -15 5 -3 12 1 16 9 6 17 6 18 -13 6z"/>
<path d="M4710 859 c0 -5 5 -7 10 -4 6 3 10 8 10 11 0 2 -4 4 -10 4 -5 0 -10
-5 -10 -11z"/>
<path d="M4755 850 c-3 -5 -2 -10 4 -10 5 0 13 5 16 10 3 6 2 10 -4 10 -5 0
-13 -4 -16 -10z"/>
<path d="M4660 819 c0 -5 5 -7 10 -4 6 3 10 8 10 11 0 2 -4 4 -10 4 -5 0 -10
-5 -10 -11z"/>
<path d="M1470 788 c0 -19 2 -20 10 -8 13 19 13 30 0 30 -5 0 -10 -10 -10 -22z"/>
<path d="M4710 799 c0 -5 5 -7 10 -4 6 3 10 8 10 11 0 2 -4 4 -10 4 -5 0 -10
-5 -10 -11z"/>
<path d="M1550 780 c0 -5 4 -10 9 -10 6 0 13 5 16 10 3 6 -1 10 -9 10 -9 0
-16 -4 -16 -10z"/>
<path d="M1380 730 c0 -23 10 -26 28 -8 18 18 15 28 -8 28 -13 0 -20 -7 -20
-20z"/>
<path d="M1430 720 c0 -5 5 -10 11 -10 5 0 7 5 4 10 -3 6 -8 10 -11 10 -2 0
-4 -4 -4 -10z"/>
<path d="M1470 710 c-8 -5 -11 -12 -8 -16 10 -9 38 3 38 16 0 12 -10 13 -30 0z"/>
</g>
</svg>
