<svg xmlns="http://www.w3.org/2000/svg" xmlns:xlink="http://www.w3.org/1999/xlink" width="768" zoomAndPan="magnify" viewBox="0 0 576 326.999992" height="436" preserveAspectRatio="xMidYMid meet" version="1.0"><metadata><ContainsAiGeneratedContent>Yes</ContainsAiGeneratedContent></metadata><defs><g/></defs><g fill="#808080" fill-opacity="1"><g transform="translate(32.712364, 206.514339)"><g><path d="M 5.835938 0 L 5.835938 -81.671875 L 30.210938 -81.671875 L 30.210938 -13.609375 L 26.261719 -13.609375 L 26.261719 -17.554688 L 61.734375 -17.554688 L 61.734375 3.945312 L 5.835938 3.945312 Z M 13.730469 0 L 9.78125 0 L 9.78125 -3.945312 L 57.789062 -3.945312 L 57.789062 0 L 53.839844 0 L 53.839844 -13.609375 L 57.789062 -13.609375 L 57.789062 -9.664062 L 22.316406 -9.664062 L 22.316406 -77.722656 L 26.261719 -77.722656 L 26.261719 -73.777344 L 9.78125 -73.777344 L 9.78125 -77.722656 L 13.730469 -77.722656 Z M 13.730469 0 "/></g></g></g><g fill="#808080" fill-opacity="1"><g transform="translate(94.215942, 206.514339)"><g><path d="M 42.574219 1.429688 L 39.4375 -6.652344 L 43.113281 -8.082031 L 43.113281 -4.132812 L 42.691406 -4.132812 L 42.691406 -8.082031 L 45.78125 -5.625 C 42.660156 -1.695312 39.371094 1.0625 35.914062 2.65625 C 32.5 4.226562 28.183594 5.011719 22.964844 5.011719 C 16.175781 5.011719 10.753906 2.996094 6.707031 -1.03125 C 2.652344 -5.0625 0.625 -10.636719 0.625 -17.757812 C 0.625 -21.503906 1.304688 -24.808594 2.660156 -27.667969 C 4.070312 -30.640625 6.175781 -33.078125 8.972656 -34.976562 C 14.011719 -38.398438 21.359375 -40.28125 31.011719 -40.625 L 41.34375 -40.945312 L 41.46875 -37 L 37.519531 -37 L 37.519531 -39.605469 C 37.519531 -41.511719 37.144531 -42.828125 36.394531 -43.5625 C 35.621094 -44.320312 34.226562 -44.695312 32.214844 -44.695312 C 28.03125 -44.695312 22.984375 -43.375 17.082031 -40.734375 L 13.605469 -39.179688 L 4.863281 -57.003906 L 8.269531 -58.785156 C 15.683594 -62.664062 23.878906 -64.605469 32.855469 -64.605469 C 41.765625 -64.605469 48.710938 -62.574219 53.691406 -58.503906 C 56.34375 -56.339844 58.324219 -53.625 59.640625 -50.359375 C 60.894531 -47.242188 61.523438 -43.660156 61.523438 -39.605469 L 61.523438 3.945312 L 43.550781 3.945312 Z M 49.929688 -1.429688 L 46.25 0 L 46.25 -3.945312 L 57.574219 -3.945312 L 57.574219 0 L 53.628906 0 L 53.628906 -39.605469 C 53.628906 -45.445312 51.984375 -49.707031 48.699219 -52.390625 C 45.171875 -55.273438 39.890625 -56.710938 32.855469 -56.710938 C 25.171875 -56.710938 18.199219 -55.070312 11.929688 -51.792969 L 10.101562 -55.289062 L 13.644531 -57.027344 L 19.015625 -46.074219 L 15.46875 -44.335938 L 13.859375 -47.941406 C 20.785156 -51.039062 26.90625 -52.589844 32.214844 -52.589844 C 36.371094 -52.589844 39.605469 -51.464844 41.914062 -49.207031 C 44.246094 -46.925781 45.414062 -43.726562 45.414062 -39.605469 L 45.414062 -33.175781 L 31.292969 -32.738281 C 23.15625 -32.445312 17.191406 -31.015625 13.40625 -28.445312 C 11.792969 -27.351562 10.589844 -25.964844 9.792969 -24.285156 C 8.945312 -22.496094 8.519531 -20.320312 8.519531 -17.757812 C 8.519531 -12.824219 9.769531 -9.117188 12.273438 -6.625 C 14.78125 -4.132812 18.347656 -2.882812 22.964844 -2.882812 C 27.03125 -2.882812 30.25 -3.425781 32.613281 -4.515625 C 34.933594 -5.582031 37.261719 -7.589844 39.597656 -10.535156 L 40.785156 -12.027344 L 45.816406 -12.027344 Z M 41.601562 -23.59375 L 35.328125 -23.382812 C 31.367188 -23.261719 28.550781 -22.636719 26.878906 -21.503906 C 26.3125 -21.121094 25.894531 -20.652344 25.628906 -20.101562 C 25.316406 -19.457031 25.160156 -18.640625 25.160156 -17.648438 C 25.160156 -16.5625 25.363281 -15.839844 25.773438 -15.480469 C 25.992188 -15.292969 26.3125 -15.132812 26.738281 -15.011719 C 27.363281 -14.828125 28.144531 -14.738281 29.078125 -14.738281 C 31.777344 -14.738281 33.871094 -15.453125 35.355469 -16.882812 C 36.800781 -18.265625 37.519531 -20.1875 37.519531 -22.648438 L 37.519531 -27.539062 L 41.46875 -27.539062 Z M 45.414062 -31.621094 L 45.414062 -22.648438 C 45.414062 -17.945312 43.882812 -14.128906 40.824219 -11.1875 C 37.8125 -8.292969 33.894531 -6.84375 29.078125 -6.84375 C 25.472656 -6.84375 22.640625 -7.742188 20.585938 -9.53125 C 18.371094 -11.460938 17.265625 -14.167969 17.265625 -17.648438 C 17.265625 -19.847656 17.683594 -21.816406 18.523438 -23.546875 C 19.410156 -25.367188 20.71875 -26.867188 22.457031 -28.042969 C 25.390625 -30.03125 29.59375 -31.105469 35.058594 -31.269531 L 41.332031 -31.484375 Z M 45.414062 -31.621094 "/></g></g></g><g fill="#808080" fill-opacity="1"><g transform="translate(159.972145, 206.514339)"><g><path d="M 53.917969 -17.648438 C 53.917969 -14.03125 53.273438 -10.800781 51.976562 -7.957031 C 50.640625 -5.027344 48.644531 -2.566406 45.996094 -0.570312 C 41.054688 3.152344 33.929688 5.011719 24.613281 5.011719 C 20.039062 5.011719 16.105469 4.695312 12.8125 4.0625 C 9.488281 3.425781 6.367188 2.484375 3.449219 1.238281 L 1.050781 0.214844 L 1.050781 -22.007812 L 6.679688 -19.359375 C 9.460938 -18.050781 12.617188 -16.949219 16.148438 -16.054688 C 19.605469 -15.175781 22.605469 -14.738281 25.144531 -14.738281 C 26.367188 -14.738281 27.402344 -14.820312 28.261719 -14.988281 C 28.925781 -15.117188 29.4375 -15.28125 29.789062 -15.484375 C 29.878906 -15.535156 29.945312 -15.585938 29.992188 -15.628906 L 30 -15.632812 L 30 -15.644531 C 30.015625 -15.707031 30.023438 -15.789062 30.023438 -15.894531 C 30.023438 -16.097656 30.007812 -16.214844 29.980469 -16.246094 C 29.488281 -16.75 28.46875 -17.410156 26.917969 -18.226562 C 25.105469 -19.183594 22.65625 -20.3125 19.570312 -21.617188 C 14.695312 -23.65625 11.054688 -25.59375 8.640625 -27.425781 C 5.976562 -29.453125 4.019531 -31.816406 2.769531 -34.519531 C 1.554688 -37.15625 0.945312 -40.304688 0.945312 -43.964844 C 0.945312 -47.226562 1.59375 -50.160156 2.898438 -52.757812 C 4.214844 -55.390625 6.167969 -57.621094 8.753906 -59.445312 C 13.53125 -62.8125 20.09375 -64.5 28.441406 -64.5 C 36.179688 -64.5 43.691406 -62.820312 50.988281 -59.457031 L 54.445312 -57.863281 L 46.550781 -38.980469 L 42.890625 -40.550781 C 40.03125 -41.773438 37.375 -42.773438 34.910156 -43.550781 C 32.710938 -44.242188 30.464844 -44.589844 28.175781 -44.589844 C 27.214844 -44.589844 26.402344 -44.53125 25.738281 -44.410156 C 25.253906 -44.324219 24.898438 -44.21875 24.671875 -44.09375 C 24.652344 -44.085938 24.636719 -44.074219 24.625 -44.070312 C 24.632812 -44.074219 24.640625 -44.078125 24.652344 -44.089844 C 24.707031 -44.140625 24.757812 -44.203125 24.808594 -44.285156 C 24.898438 -44.433594 24.945312 -44.558594 24.945312 -44.65625 C 24.945312 -44.671875 24.945312 -44.683594 24.941406 -44.683594 C 25.039062 -44.53125 25.242188 -44.347656 25.550781 -44.132812 C 26.851562 -43.234375 29.972656 -41.796875 34.910156 -39.8125 C 39.878906 -37.800781 43.585938 -35.878906 46.023438 -34.039062 C 48.691406 -32.027344 50.679688 -29.667969 51.984375 -26.96875 C 53.273438 -24.300781 53.917969 -21.195312 53.917969 -17.648438 Z M 46.027344 -17.648438 C 46.027344 -19.988281 45.644531 -21.949219 44.878906 -23.535156 C 44.125 -25.089844 42.925781 -26.488281 41.269531 -27.738281 C 39.386719 -29.160156 36.285156 -30.742188 31.96875 -32.488281 C 26.488281 -34.6875 22.855469 -36.402344 21.070312 -37.632812 C 19.839844 -38.480469 18.886719 -39.457031 18.210938 -40.5625 C 17.4375 -41.824219 17.050781 -43.1875 17.050781 -44.65625 C 17.050781 -46.050781 17.398438 -47.304688 18.089844 -48.425781 C 18.757812 -49.511719 19.699219 -50.382812 20.917969 -51.039062 C 22.699219 -52.003906 25.117188 -52.484375 28.175781 -52.484375 C 31.273438 -52.484375 34.308594 -52.015625 37.285156 -51.078125 C 39.996094 -50.226562 42.902344 -49.132812 46 -47.804688 L 44.445312 -44.179688 L 40.804688 -45.699219 L 45.695312 -57.398438 L 49.335938 -55.875 L 47.683594 -52.289062 C 41.4375 -55.167969 35.023438 -56.605469 28.441406 -56.605469 C 21.761719 -56.605469 16.71875 -55.402344 13.308594 -52.996094 C 11.800781 -51.929688 10.683594 -50.671875 9.953125 -49.222656 C 9.210938 -47.734375 8.835938 -45.984375 8.835938 -43.964844 C 8.835938 -41.460938 9.203125 -39.417969 9.9375 -37.832031 C 10.636719 -36.320312 11.796875 -34.945312 13.421875 -33.710938 C 15.296875 -32.28125 18.371094 -30.675781 22.640625 -28.886719 C 25.933594 -27.496094 28.589844 -26.269531 30.601562 -25.207031 C 32.882812 -24.003906 34.554688 -22.855469 35.625 -21.765625 C 37.152344 -20.199219 37.917969 -18.246094 37.917969 -15.894531 C 37.917969 -14.339844 37.558594 -12.941406 36.839844 -11.691406 C 36.121094 -10.441406 35.085938 -9.429688 33.742188 -8.652344 C 31.660156 -7.445312 28.792969 -6.84375 25.144531 -6.84375 C 21.945312 -6.84375 18.300781 -7.363281 14.207031 -8.402344 C 10.1875 -9.421875 6.558594 -10.691406 3.316406 -12.21875 L 4.996094 -15.789062 L 8.945312 -15.789062 L 8.945312 -2.390625 L 4.996094 -2.390625 L 6.546875 -6.023438 C 8.945312 -5 11.53125 -4.222656 14.300781 -3.691406 C 17.101562 -3.152344 20.539062 -2.882812 24.613281 -2.882812 C 32.167969 -2.882812 37.714844 -4.214844 41.246094 -6.875 C 42.828125 -8.066406 44.011719 -9.519531 44.792969 -11.234375 C 45.617188 -13.035156 46.027344 -15.171875 46.027344 -17.648438 Z M 46.027344 -17.648438 "/></g></g></g><g fill="#808080" fill-opacity="1"><g transform="translate(214.086788, 206.514339)"><g><path d="M 33.121094 -45.070312 C 30.859375 -45.070312 29.144531 -44.417969 27.980469 -43.117188 C 26.632812 -41.605469 25.847656 -39.296875 25.628906 -36.191406 L 21.691406 -36.46875 L 21.691406 -40.417969 L 44.445312 -40.417969 L 44.445312 -36.46875 L 40.496094 -36.398438 C 40.445312 -39.398438 39.75 -41.621094 38.414062 -43.0625 C 37.171875 -44.402344 35.410156 -45.070312 33.121094 -45.070312 Z M 33.121094 -52.964844 C 35.34375 -52.964844 37.375 -52.597656 39.210938 -51.863281 C 41.125 -51.097656 42.789062 -49.953125 44.203125 -48.429688 C 46.90625 -45.511719 48.300781 -41.550781 48.390625 -36.539062 L 48.460938 -32.523438 L 17.453125 -32.523438 L 17.753906 -36.75 C 18.101562 -41.652344 19.546875 -45.527344 22.097656 -48.378906 C 23.480469 -49.921875 25.128906 -51.082031 27.042969 -51.859375 C 28.863281 -52.59375 30.890625 -52.964844 33.121094 -52.964844 Z M 35.40625 5.011719 C 24.761719 5.011719 16.363281 1.992188 10.207031 -4.039062 C 4.03125 -10.09375 0.945312 -18.511719 0.945312 -29.292969 C 0.945312 -40.273438 3.777344 -48.863281 9.449219 -55.058594 C 15.210938 -61.351562 23.066406 -64.5 33.015625 -64.5 C 42.519531 -64.5 50 -61.710938 55.453125 -56.136719 C 60.882812 -50.582031 63.59375 -43.054688 63.59375 -33.546875 L 63.59375 -21.730469 L 21.316406 -21.730469 L 21.316406 -25.675781 L 25.261719 -25.828125 C 25.398438 -22.242188 26.386719 -19.519531 28.222656 -17.65625 C 30 -15.851562 32.644531 -14.953125 36.152344 -14.953125 C 39.425781 -14.953125 42.511719 -15.289062 45.40625 -15.964844 C 48.328125 -16.644531 51.398438 -17.742188 54.621094 -19.257812 L 60.246094 -21.894531 L 60.246094 -0.699219 L 58.066406 0.394531 C 54.929688 1.960938 51.585938 3.125 48.035156 3.886719 C 44.539062 4.636719 40.328125 5.011719 35.40625 5.011719 Z M 35.40625 -2.882812 C 39.769531 -2.882812 43.429688 -3.199219 46.382812 -3.832031 C 49.28125 -4.453125 51.996094 -5.398438 54.535156 -6.667969 L 56.300781 -3.136719 L 52.351562 -3.136719 L 52.351562 -15.683594 L 56.300781 -15.683594 L 57.976562 -12.109375 C 54.253906 -10.363281 50.660156 -9.085938 47.203125 -8.277344 C 43.71875 -7.464844 40.035156 -7.058594 36.152344 -7.058594 C 30.441406 -7.058594 25.925781 -8.742188 22.601562 -12.113281 C 19.332031 -15.429688 17.589844 -19.898438 17.375 -25.527344 L 17.214844 -29.625 L 59.648438 -29.625 L 59.648438 -25.675781 L 55.703125 -25.675781 L 55.703125 -33.546875 C 55.703125 -40.910156 53.738281 -46.597656 49.808594 -50.617188 C 45.90625 -54.609375 40.304688 -56.605469 33.015625 -56.605469 C 25.382812 -56.605469 19.46875 -54.3125 15.273438 -49.726562 C 10.984375 -45.039062 8.835938 -38.230469 8.835938 -29.292969 C 8.835938 -20.722656 11.136719 -14.183594 15.734375 -9.675781 C 20.355469 -5.148438 26.910156 -2.882812 35.40625 -2.882812 Z M 35.40625 -2.882812 "/></g></g></g><g fill="#808080" fill-opacity="1"><g transform="translate(278.40773, 206.514339)"><g><path d="M 32.640625 5.011719 C 22.230469 5.011719 14.320312 2.042969 8.910156 -3.894531 C 3.601562 -9.722656 0.945312 -18.226562 0.945312 -29.398438 C 0.945312 -40.546875 3.820312 -49.164062 9.570312 -55.261719 C 15.382812 -61.417969 23.550781 -64.5 34.078125 -64.5 C 41.566406 -64.5 48.316406 -63.015625 54.324219 -60.050781 L 57.546875 -58.460938 L 50.046875 -38.800781 L 46.320312 -40.304688 C 43.878906 -41.285156 41.621094 -42.089844 39.542969 -42.707031 C 37.710938 -43.253906 35.890625 -43.527344 34.078125 -43.527344 C 32.558594 -43.527344 31.277344 -43.28125 30.230469 -42.785156 C 29.277344 -42.332031 28.46875 -41.640625 27.816406 -40.710938 C 26.1875 -38.394531 25.371094 -34.660156 25.371094 -29.503906 C 25.371094 -24.546875 26.175781 -20.960938 27.78125 -18.746094 C 28.433594 -17.851562 29.234375 -17.183594 30.1875 -16.746094 C 31.25 -16.257812 32.542969 -16.015625 34.078125 -16.015625 C 36.792969 -16.015625 39.289062 -16.371094 41.5625 -17.082031 C 43.863281 -17.804688 46.183594 -18.945312 48.527344 -20.507812 L 54.664062 -24.597656 L 54.664062 -1.179688 L 52.832031 -0.0195312 C 49.839844 1.882812 46.789062 3.207031 43.683594 3.945312 C 40.707031 4.65625 37.027344 5.011719 32.640625 5.011719 Z M 32.640625 -2.882812 C 36.410156 -2.882812 39.480469 -3.167969 41.855469 -3.734375 C 44.101562 -4.269531 46.351562 -5.25 48.601562 -6.679688 L 50.71875 -3.347656 L 46.769531 -3.347656 L 46.769531 -17.226562 L 50.71875 -17.226562 L 52.90625 -13.941406 C 49.933594 -11.960938 46.941406 -10.496094 43.921875 -9.550781 C 40.878906 -8.597656 37.597656 -8.121094 34.078125 -8.121094 C 31.394531 -8.121094 29 -8.605469 26.894531 -9.570312 C 24.6875 -10.585938 22.851562 -12.097656 21.394531 -14.109375 C 18.78125 -17.707031 17.476562 -22.839844 17.476562 -29.503906 C 17.476562 -36.328125 18.773438 -41.578125 21.359375 -45.253906 C 22.8125 -47.320312 24.644531 -48.875 26.851562 -49.917969 C 28.96875 -50.921875 31.378906 -51.421875 34.078125 -51.421875 C 36.660156 -51.421875 39.234375 -51.039062 41.796875 -50.273438 C 44.113281 -49.582031 46.601562 -48.699219 49.269531 -47.625 L 47.792969 -43.964844 L 44.105469 -45.371094 L 48.890625 -57.917969 L 52.578125 -56.511719 L 50.832031 -52.972656 C 45.925781 -55.394531 40.339844 -56.605469 34.078125 -56.605469 C 25.820312 -56.605469 19.566406 -54.351562 15.3125 -49.84375 C 10.996094 -45.269531 8.835938 -38.453125 8.835938 -29.398438 C 8.835938 -20.265625 10.808594 -13.535156 14.746094 -9.210938 C 18.589844 -4.992188 24.554688 -2.882812 32.640625 -2.882812 Z M 32.640625 -2.882812 "/></g></g></g><g fill="#808080" fill-opacity="1"><g transform="translate(334.38813, 206.514339)"><g><path d="M 26.261719 -45.09375 L 31.683594 -45.09375 C 35.835938 -45.09375 38.808594 -45.808594 40.605469 -47.238281 C 41.347656 -47.832031 41.902344 -48.550781 42.269531 -49.402344 C 42.683594 -50.363281 42.890625 -51.527344 42.890625 -52.898438 C 42.890625 -55.566406 42.285156 -57.429688 41.074219 -58.484375 C 40.472656 -59.011719 39.628906 -59.425781 38.554688 -59.726562 C 37.246094 -60.09375 35.648438 -60.273438 33.757812 -60.273438 L 26.261719 -60.273438 L 26.261719 -64.222656 L 30.210938 -64.222656 L 30.210938 -41.148438 L 26.261719 -41.148438 Z M 22.316406 -37.203125 L 22.316406 -68.167969 L 33.757812 -68.167969 C 39.246094 -68.167969 43.417969 -66.921875 46.269531 -64.429688 C 49.277344 -61.796875 50.785156 -57.957031 50.785156 -52.898438 C 50.785156 -50.441406 50.359375 -48.234375 49.515625 -46.277344 C 48.625 -44.210938 47.292969 -42.476562 45.519531 -41.0625 C 42.285156 -38.488281 37.671875 -37.203125 31.683594 -37.203125 Z M 67.421875 -53.480469 C 67.421875 -48.78125 66.671875 -44.59375 65.167969 -40.917969 C 63.621094 -37.125 61.292969 -33.910156 58.1875 -31.277344 C 52.222656 -26.226562 43.9375 -23.699219 33.332031 -23.699219 L 26.261719 -23.699219 L 26.261719 -27.644531 L 30.210938 -27.644531 L 30.210938 3.945312 L 5.835938 3.945312 L 5.835938 -81.671875 L 34.609375 -81.671875 C 44.984375 -81.671875 52.988281 -79.339844 58.628906 -74.679688 C 61.59375 -72.226562 63.816406 -69.179688 65.292969 -65.539062 C 66.714844 -62.035156 67.421875 -58.019531 67.421875 -53.480469 Z M 59.53125 -53.480469 C 59.53125 -60.289062 57.550781 -65.324219 53.597656 -68.59375 C 49.417969 -72.050781 43.089844 -73.777344 34.609375 -73.777344 L 9.78125 -73.777344 L 9.78125 -77.722656 L 13.730469 -77.722656 L 13.730469 0 L 9.78125 0 L 9.78125 -3.945312 L 26.261719 -3.945312 L 26.261719 0 L 22.316406 0 L 22.316406 -31.589844 L 33.332031 -31.589844 C 42.007812 -31.589844 48.589844 -33.496094 53.082031 -37.300781 C 55.207031 -39.101562 56.800781 -41.300781 57.863281 -43.902344 C 58.972656 -46.625 59.53125 -49.816406 59.53125 -53.480469 Z M 59.53125 -53.480469 "/></g></g></g><g fill="#808080" fill-opacity="1"><g transform="translate(402.749064, 206.514339)"><g><path d="M 4.558594 -86.667969 L 28.667969 -86.667969 L 28.667969 3.945312 L 4.558594 3.945312 Z M 12.453125 -78.773438 L 12.453125 -3.945312 L 20.773438 -3.945312 L 20.773438 -78.773438 Z M 12.453125 -78.773438 "/></g></g></g><g fill="#808080" fill-opacity="1"><g transform="translate(435.972691, 206.514339)"><g><path d="M 25.371094 -29.824219 C 25.371094 -24.710938 26.128906 -20.972656 27.644531 -18.609375 C 28.207031 -17.734375 28.9375 -17.082031 29.835938 -16.652344 C 30.867188 -16.15625 32.175781 -15.910156 33.757812 -15.910156 C 35.320312 -15.910156 36.609375 -16.152344 37.621094 -16.640625 C 38.496094 -17.0625 39.207031 -17.703125 39.753906 -18.566406 C 41.242188 -20.914062 41.984375 -24.667969 41.984375 -29.824219 C 41.984375 -34.925781 41.242188 -38.621094 39.753906 -40.910156 C 39.207031 -41.75 38.488281 -42.382812 37.597656 -42.796875 C 36.5625 -43.285156 35.246094 -43.527344 33.652344 -43.527344 C 32.078125 -43.527344 30.773438 -43.285156 29.746094 -42.804688 C 28.863281 -42.390625 28.144531 -41.765625 27.597656 -40.925781 C 26.113281 -38.660156 25.371094 -34.957031 25.371094 -29.824219 Z M 17.476562 -29.824219 C 17.476562 -36.527344 18.648438 -41.667969 20.992188 -45.25 C 22.359375 -47.335938 24.160156 -48.902344 26.394531 -49.953125 C 28.484375 -50.929688 30.902344 -51.421875 33.652344 -51.421875 C 36.417969 -51.421875 38.851562 -50.929688 40.949219 -49.945312 C 43.199219 -48.890625 45.003906 -47.3125 46.371094 -45.214844 C 48.710938 -41.617188 49.878906 -36.488281 49.878906 -29.824219 C 49.878906 -23.144531 48.726562 -17.980469 46.421875 -14.34375 C 45.070312 -12.207031 43.28125 -10.605469 41.046875 -9.527344 C 38.949219 -8.519531 36.519531 -8.015625 33.757812 -8.015625 C 30.980469 -8.015625 28.535156 -8.519531 26.425781 -9.53125 C 24.175781 -10.609375 22.367188 -12.214844 21 -14.351562 C 18.652344 -18.011719 17.476562 -23.167969 17.476562 -29.824219 Z M 66.464844 -29.824219 C 66.464844 -19.109375 63.558594 -10.644531 57.746094 -4.429688 C 51.863281 1.863281 43.796875 5.011719 33.546875 5.011719 C 27.140625 5.011719 21.453125 3.585938 16.484375 0.738281 C 11.4375 -2.15625 7.5625 -6.296875 4.871094 -11.683594 C 2.253906 -16.917969 0.945312 -22.964844 0.945312 -29.824219 C 0.945312 -40.578125 3.835938 -49.027344 9.617188 -55.175781 C 15.464844 -61.390625 23.546875 -64.5 33.863281 -64.5 C 40.265625 -64.5 45.949219 -63.085938 50.914062 -60.261719 C 55.964844 -57.386719 59.839844 -53.273438 62.535156 -47.921875 C 65.15625 -42.71875 66.464844 -36.6875 66.464844 -29.824219 Z M 58.574219 -29.824219 C 58.574219 -35.4375 57.542969 -40.285156 55.484375 -44.371094 C 53.503906 -48.300781 50.679688 -51.3125 47.011719 -53.402344 C 43.257812 -55.539062 38.875 -56.605469 33.863281 -56.605469 C 25.824219 -56.605469 19.65625 -54.328125 15.367188 -49.765625 C 11.015625 -45.140625 8.835938 -38.492188 8.835938 -29.824219 C 8.835938 -24.207031 9.867188 -19.339844 11.929688 -15.214844 C 13.914062 -11.246094 16.742188 -8.210938 20.410156 -6.109375 C 24.160156 -3.957031 28.539062 -2.882812 33.546875 -2.882812 C 41.511719 -2.882812 47.65625 -5.195312 51.980469 -9.820312 C 56.375 -14.519531 58.574219 -21.1875 58.574219 -29.824219 Z M 58.574219 -29.824219 "/></g></g></g><g fill="#808080" fill-opacity="1"><g transform="translate(503.376785, 206.514339)"><g><path d="M 33.546875 -15.800781 C 35.980469 -15.800781 38.988281 -16.363281 42.574219 -17.484375 L 47.699219 -19.085938 L 47.699219 0.910156 L 45.363281 1.953125 C 40.8125 3.992188 35.3125 5.011719 28.867188 5.011719 C 21.210938 5.011719 15.511719 2.9375 11.769531 -1.210938 C 8.132812 -5.238281 6.3125 -11.039062 6.3125 -18.605469 L 6.3125 -47.261719 L 10.261719 -47.261719 L 10.261719 -43.316406 L -1.449219 -43.316406 L -1.449219 -56.339844 L 9.382812 -62.917969 L 11.429688 -59.542969 L 7.730469 -60.921875 L 13.367188 -76.035156 L 30.421875 -76.035156 L 30.421875 -59.4375 L 26.476562 -59.4375 L 26.476562 -63.382812 L 47.0625 -63.382812 L 47.0625 -43.316406 L 26.476562 -43.316406 L 26.476562 -47.261719 L 30.421875 -47.261719 L 30.421875 -18.605469 C 30.421875 -17.519531 30.605469 -16.820312 30.96875 -16.511719 C 31.527344 -16.039062 32.386719 -15.800781 33.546875 -15.800781 Z M 33.546875 -7.910156 C 30.453125 -7.910156 27.890625 -8.769531 25.859375 -10.496094 C 23.640625 -12.382812 22.527344 -15.085938 22.527344 -18.605469 L 22.527344 -51.207031 L 43.113281 -51.207031 L 43.113281 -47.261719 L 39.167969 -47.261719 L 39.167969 -59.4375 L 43.113281 -59.4375 L 43.113281 -55.488281 L 22.527344 -55.488281 L 22.527344 -72.089844 L 26.476562 -72.089844 L 26.476562 -68.140625 L 16.109375 -68.140625 L 16.109375 -72.089844 L 19.804688 -70.710938 L 14.648438 -56.878906 L 4.546875 -50.746094 L 2.5 -54.121094 L 6.445312 -54.121094 L 6.445312 -47.261719 L 2.5 -47.261719 L 2.5 -51.207031 L 14.207031 -51.207031 L 14.207031 -18.605469 C 14.207031 -13.0625 15.347656 -9.027344 17.628906 -6.5 C 19.804688 -4.089844 23.550781 -2.882812 28.867188 -2.882812 C 34.1875 -2.882812 38.613281 -3.671875 42.140625 -5.25 L 43.753906 -1.648438 L 39.804688 -1.648438 L 39.804688 -13.714844 L 43.753906 -13.714844 L 44.929688 -9.949219 C 40.578125 -8.589844 36.78125 -7.910156 33.546875 -7.910156 Z M 33.546875 -7.910156 "/></g></g></g><g fill="#ffffff" fill-opacity="1"><g transform="translate(32.712364, 206.514339)"><g><path d="M 9.78125 0 L 9.78125 -77.71875 L 26.265625 -77.71875 L 26.265625 -13.609375 L 57.78125 -13.609375 L 57.78125 0 Z M 9.78125 0 "/></g></g></g><g fill="#ffffff" fill-opacity="1"><g transform="translate(94.215942, 206.514339)"><g><path d="M 46.25 0 L 43.109375 -8.078125 L 42.6875 -8.078125 C 39.957031 -4.640625 37.148438 -2.253906 34.265625 -0.921875 C 31.378906 0.398438 27.613281 1.0625 22.96875 1.0625 C 17.257812 1.0625 12.765625 -0.566406 9.484375 -3.828125 C 6.210938 -7.085938 4.578125 -11.726562 4.578125 -17.75 C 4.578125 -24.0625 6.78125 -28.710938 11.1875 -31.703125 C 15.601562 -34.703125 22.257812 -36.363281 31.15625 -36.6875 L 41.46875 -37 L 41.46875 -39.609375 C 41.46875 -45.628906 38.382812 -48.640625 32.21875 -48.640625 C 27.46875 -48.640625 21.882812 -47.207031 15.46875 -44.34375 L 10.09375 -55.28125 C 16.9375 -58.863281 24.523438 -60.65625 32.859375 -60.65625 C 40.828125 -60.65625 46.9375 -58.914062 51.1875 -55.4375 C 55.445312 -51.96875 57.578125 -46.691406 57.578125 -39.609375 L 57.578125 0 Z M 41.46875 -27.53125 L 35.1875 -27.328125 C 30.476562 -27.179688 26.972656 -26.328125 24.671875 -24.765625 C 22.367188 -23.210938 21.21875 -20.84375 21.21875 -17.65625 C 21.21875 -13.082031 23.835938 -10.796875 29.078125 -10.796875 C 32.835938 -10.796875 35.84375 -11.875 38.09375 -14.03125 C 40.34375 -16.195312 41.46875 -19.066406 41.46875 -22.640625 Z M 41.46875 -27.53125 "/></g></g></g><g fill="#ffffff" fill-opacity="1"><g transform="translate(159.972145, 206.514339)"><g><path d="M 49.96875 -17.65625 C 49.96875 -11.550781 47.847656 -6.90625 43.609375 -3.71875 C 39.378906 -0.53125 33.046875 1.0625 24.609375 1.0625 C 20.285156 1.0625 16.597656 0.769531 13.546875 0.1875 C 10.503906 -0.394531 7.65625 -1.253906 5 -2.390625 L 5 -15.78125 C 8.007812 -14.363281 11.398438 -13.175781 15.171875 -12.21875 C 18.953125 -11.269531 22.273438 -10.796875 25.140625 -10.796875 C 31.023438 -10.796875 33.96875 -12.492188 33.96875 -15.890625 C 33.96875 -17.171875 33.578125 -18.207031 32.796875 -19 C 32.015625 -19.800781 30.664062 -20.707031 28.75 -21.71875 C 26.84375 -22.726562 24.296875 -23.90625 21.109375 -25.25 C 16.535156 -27.164062 13.175781 -28.9375 11.03125 -30.5625 C 8.882812 -32.195312 7.320312 -34.066406 6.34375 -36.171875 C 5.375 -38.285156 4.890625 -40.882812 4.890625 -43.96875 C 4.890625 -49.25 6.9375 -53.332031 11.03125 -56.21875 C 15.125 -59.101562 20.925781 -60.546875 28.4375 -60.546875 C 35.601562 -60.546875 42.566406 -58.988281 49.328125 -55.875 L 44.4375 -44.171875 C 41.46875 -45.453125 38.6875 -46.5 36.09375 -47.3125 C 33.507812 -48.125 30.867188 -48.53125 28.171875 -48.53125 C 23.390625 -48.53125 21 -47.238281 21 -44.65625 C 21 -43.195312 21.769531 -41.9375 23.3125 -40.875 C 24.851562 -39.8125 28.226562 -38.238281 33.4375 -36.15625 C 38.082031 -34.269531 41.484375 -32.507812 43.640625 -30.875 C 45.804688 -29.25 47.398438 -27.375 48.421875 -25.25 C 49.453125 -23.125 49.96875 -20.59375 49.96875 -17.65625 Z M 49.96875 -17.65625 "/></g></g></g><g fill="#ffffff" fill-opacity="1"><g transform="translate(214.086788, 206.514339)"><g><path d="M 33.125 -49.015625 C 29.6875 -49.015625 26.988281 -47.921875 25.03125 -45.734375 C 23.082031 -43.554688 21.96875 -40.46875 21.6875 -36.46875 L 44.4375 -36.46875 C 44.375 -40.46875 43.332031 -43.554688 41.3125 -45.734375 C 39.289062 -47.921875 36.5625 -49.015625 33.125 -49.015625 Z M 35.40625 1.0625 C 25.832031 1.0625 18.351562 -1.578125 12.96875 -6.859375 C 7.582031 -12.140625 4.890625 -19.617188 4.890625 -29.296875 C 4.890625 -39.253906 7.378906 -46.953125 12.359375 -52.390625 C 17.335938 -57.828125 24.222656 -60.546875 33.015625 -60.546875 C 41.410156 -60.546875 47.945312 -58.15625 52.625 -53.375 C 57.300781 -48.59375 59.640625 -41.984375 59.640625 -33.546875 L 59.640625 -25.671875 L 21.3125 -25.671875 C 21.488281 -21.066406 22.851562 -17.46875 25.40625 -14.875 C 27.957031 -12.289062 31.539062 -11 36.15625 -11 C 39.726562 -11 43.109375 -11.367188 46.296875 -12.109375 C 49.492188 -12.859375 52.828125 -14.050781 56.296875 -15.6875 L 56.296875 -3.140625 C 53.460938 -1.722656 50.429688 -0.671875 47.203125 0.015625 C 43.984375 0.710938 40.050781 1.0625 35.40625 1.0625 Z M 35.40625 1.0625 "/></g></g></g><g fill="#ffffff" fill-opacity="1"><g transform="translate(278.40773, 206.514339)"><g><path d="M 32.640625 1.0625 C 14.140625 1.0625 4.890625 -9.085938 4.890625 -29.390625 C 4.890625 -39.492188 7.40625 -47.210938 12.4375 -52.546875 C 17.46875 -57.878906 24.679688 -60.546875 34.078125 -60.546875 C 40.953125 -60.546875 47.117188 -59.203125 52.578125 -56.515625 L 47.796875 -43.96875 C 45.242188 -44.988281 42.867188 -45.828125 40.671875 -46.484375 C 38.472656 -47.140625 36.273438 -47.46875 34.078125 -47.46875 C 25.640625 -47.46875 21.421875 -41.476562 21.421875 -29.5 C 21.421875 -17.875 25.640625 -12.0625 34.078125 -12.0625 C 37.191406 -12.0625 40.078125 -12.476562 42.734375 -13.3125 C 45.398438 -14.144531 48.0625 -15.445312 50.71875 -17.21875 L 50.71875 -3.34375 C 48.09375 -1.675781 45.441406 -0.523438 42.765625 0.109375 C 40.085938 0.742188 36.710938 1.0625 32.640625 1.0625 Z M 32.640625 1.0625 "/></g></g></g><g fill="#ff3131" fill-opacity="1"><g transform="translate(334.38813, 206.514339)"><g><path d="M 26.265625 -41.140625 L 31.6875 -41.140625 C 36.75 -41.140625 40.535156 -42.140625 43.046875 -44.140625 C 45.566406 -46.148438 46.828125 -49.066406 46.828125 -52.890625 C 46.828125 -56.753906 45.773438 -59.609375 43.671875 -61.453125 C 41.566406 -63.296875 38.257812 -64.21875 33.75 -64.21875 L 26.265625 -64.21875 Z M 63.46875 -53.484375 C 63.46875 -45.117188 60.851562 -38.71875 55.625 -34.28125 C 50.40625 -29.851562 42.972656 -27.640625 33.328125 -27.640625 L 26.265625 -27.640625 L 26.265625 0 L 9.78125 0 L 9.78125 -77.71875 L 34.609375 -77.71875 C 44.035156 -77.71875 51.203125 -75.6875 56.109375 -71.625 C 61.015625 -67.570312 63.46875 -61.523438 63.46875 -53.484375 Z M 63.46875 -53.484375 "/></g></g></g><g fill="#ff3131" fill-opacity="1"><g transform="translate(402.749064, 206.514339)"><g><path d="M 24.71875 0 L 8.5 0 L 8.5 -82.71875 L 24.71875 -82.71875 Z M 24.71875 0 "/></g></g></g><g fill="#ff3131" fill-opacity="1"><g transform="translate(435.972691, 206.514339)"><g><path d="M 21.421875 -29.828125 C 21.421875 -23.941406 22.382812 -19.492188 24.3125 -16.484375 C 26.25 -13.472656 29.394531 -11.96875 33.75 -11.96875 C 38.082031 -11.96875 41.195312 -13.460938 43.09375 -16.453125 C 44.988281 -19.453125 45.9375 -23.910156 45.9375 -29.828125 C 45.9375 -35.710938 44.976562 -40.125 43.0625 -43.0625 C 41.144531 -46 38.007812 -47.46875 33.65625 -47.46875 C 29.332031 -47.46875 26.210938 -46.003906 24.296875 -43.078125 C 22.378906 -40.160156 21.421875 -35.742188 21.421875 -29.828125 Z M 62.515625 -29.828125 C 62.515625 -20.148438 59.960938 -12.582031 54.859375 -7.125 C 49.753906 -1.664062 42.648438 1.0625 33.546875 1.0625 C 27.835938 1.0625 22.800781 -0.1875 18.4375 -2.6875 C 14.082031 -5.1875 10.734375 -8.773438 8.390625 -13.453125 C 6.054688 -18.128906 4.890625 -23.585938 4.890625 -29.828125 C 4.890625 -39.535156 7.421875 -47.082031 12.484375 -52.46875 C 17.554688 -57.851562 24.679688 -60.546875 33.859375 -60.546875 C 39.566406 -60.546875 44.597656 -59.304688 48.953125 -56.828125 C 53.316406 -54.347656 56.664062 -50.785156 59 -46.140625 C 61.34375 -41.503906 62.515625 -36.066406 62.515625 -29.828125 Z M 62.515625 -29.828125 "/></g></g></g><g fill="#ff3131" fill-opacity="1"><g transform="translate(503.376785, 206.514339)"><g><path d="M 33.546875 -11.859375 C 36.378906 -11.859375 39.78125 -12.476562 43.75 -13.71875 L 43.75 -1.640625 C 39.707031 0.160156 34.742188 1.0625 28.859375 1.0625 C 22.378906 1.0625 17.660156 -0.570312 14.703125 -3.84375 C 11.742188 -7.125 10.265625 -12.046875 10.265625 -18.609375 L 10.265625 -47.265625 L 2.5 -47.265625 L 2.5 -54.125 L 11.4375 -59.546875 L 16.109375 -72.09375 L 26.46875 -72.09375 L 26.46875 -59.4375 L 43.109375 -59.4375 L 43.109375 -47.265625 L 26.46875 -47.265625 L 26.46875 -18.609375 C 26.46875 -16.304688 27.113281 -14.601562 28.40625 -13.5 C 29.707031 -12.40625 31.421875 -11.859375 33.546875 -11.859375 Z M 33.546875 -11.859375 "/></g></g></g></svg>